<svg width="64" height="66" viewBox="0 0 64 66" fill="none" xmlns="http://www.w3.org/2000/svg">
<rect width="64" height="66" rx="14" fill="#A5E3B9"/>
<path fill-rule="evenodd" clip-rule="evenodd" d="M30.5833 31.1667H33.4167V33.2917H31.2917V35.4167H29.1667V32.5833C29.1667 31.8013 29.8013 31.1667 30.5833 31.1667V31.1667ZM35.5417 33.2917H39.0833V31.1667H35.5417V33.2917ZM33.4167 46.0417V46.75C33.4167 47.141 33.0993 47.4583 32.7083 47.4583H30.5833C29.8013 47.4583 29.1667 46.8237 29.1667 46.0417V43.2083H31.2917V45.3333H32.7083C33.0993 45.3333 33.4167 45.6507 33.4167 46.0417V46.0417ZM29.1667 41.0833H31.2917V37.5417H29.1667V41.0833ZM39.679 41.6259C39.4254 41.7138 39.215 41.8951 39.0897 42.1317L38.0796 44.0406L36.9413 38.8209L41.5688 40.9665L39.679 41.6259ZM44.8428 40.1413L35.8937 35.9918C35.5282 35.8233 35.0976 35.8743 34.7824 36.1278C34.4671 36.3793 34.3226 36.7887 34.4091 37.1826L36.6233 47.3301C36.7182 47.7665 37.0752 48.0958 37.5172 48.1568C37.5654 48.1631 37.6136 48.1667 37.6617 48.1667C38.0506 48.1667 38.4147 47.9521 38.6003 47.6007L40.7727 43.4945L44.7458 42.1083C45.1545 41.9659 45.4357 41.5905 45.4569 41.1577C45.4782 40.7256 45.2352 40.324 44.8428 40.1413V40.1413ZM45.4583 32.5833V34.7083C45.4583 35.0993 45.141 35.4167 44.75 35.4167H44.0417C43.6507 35.4167 43.3333 35.0993 43.3333 34.7083V33.2917H41.2083V31.1667H44.0417C44.8237 31.1667 45.4583 31.8013 45.4583 32.5833V32.5833ZM26.3333 24.0833H43.3333V21.9583H26.3333V24.0833ZM21.375 24.0833H24.2083V21.9583H21.375V24.0833ZM45.4583 21.9583C45.4583 20.7846 44.507 19.8333 43.3333 19.8333H21.375C20.2013 19.8333 19.25 20.7846 19.25 21.9583V43.9166C19.25 45.0904 20.2013 46.0416 21.375 46.0416H25.625C26.016 46.0416 26.3333 45.7243 26.3333 45.3333V44.625C26.3333 44.234 26.016 43.9166 25.625 43.9166H21.375V26.2083H43.3333V27.625C43.3333 28.016 43.6507 28.3333 44.0417 28.3333H44.75C45.141 28.3333 45.4583 28.016 45.4583 27.625V24.0833H45.4435C45.4505 23.2085 45.4583 21.9583 45.4583 21.9583V21.9583Z" fill="black"/>
</svg>
