<svg width="210" height="90" viewBox="0 0 210 90" fill="none" xmlns="http://www.w3.org/2000/svg">
<g clip-path="url(#clip0_1313_25744)">
<path d="M182 55.1035C175.175 55.1035 168.166 55.1035 161.111 55.1035C161.111 48.0792 161.111 41.101 161.111 34C168.135 41.1163 175.114 48.1559 182 55.1035Z" fill="black"/>
<path d="M62.8023 48.1406C62.8023 43.4015 62.8023 38.7391 62.8023 34.0767C63.9986 34.0767 65.1642 34.0767 66.3451 34.0767C66.3451 41.1163 66.3451 48.1406 66.3451 55.2262C65.5323 55.2262 64.7348 55.2415 63.9372 55.2109C63.8299 55.2109 63.7225 55.0575 63.6458 54.9501C60.2411 50.4871 56.8516 46.0241 53.4469 41.5611C53.3395 41.4231 53.2322 41.285 53.0634 41.0703C53.0634 45.8401 53.0634 50.5025 53.0634 55.2109C51.8672 55.2109 50.7169 55.2109 49.536 55.2109C49.536 48.1713 49.536 41.147 49.536 34.0614C49.9654 34.0614 50.4255 34.1074 50.8549 34.0461C51.7138 33.9234 52.2199 34.2761 52.7414 34.9509C55.9774 39.2606 59.2595 43.5396 62.5263 47.8185C62.6029 47.9105 62.6796 47.9872 62.8023 48.1406ZM84.2278 34.4755C84.2278 38.5398 84.2278 42.604 84.2278 46.6683C84.2278 47.067 84.2432 47.4658 84.2892 47.8492C84.8873 53.2938 90.7306 56.7139 95.8071 54.6281C99.0125 53.3091 101.052 50.3031 101.052 46.8523C101.068 42.7114 101.052 38.5704 101.052 34.4295C101.052 34.3068 101.052 34.1841 101.052 34.0767C99.8407 34.0767 98.7058 34.0767 97.5248 34.0767C97.5248 34.2608 97.5248 34.4142 97.5248 34.5522C97.5248 38.6011 97.5402 42.65 97.5248 46.6989C97.5095 49.9043 94.5648 52.2048 91.4515 51.4533C89.2736 50.9319 87.7553 48.9688 87.7553 46.6376C87.7553 42.604 87.7553 38.5551 87.7553 34.5215C87.7553 34.3681 87.7553 34.2148 87.7553 34.0461C86.559 34.0461 85.4241 34.0461 84.2278 34.0461C84.2432 34.2301 84.2278 34.3528 84.2278 34.4755ZM29 34.3528C29 38.6011 29 42.8341 29 47.0824C29 48.0792 29.1994 49.0455 29.5675 49.9657C30.9784 53.4625 34.8893 56.0544 39.4597 55.0115C42.9258 54.214 45.9012 50.8705 45.8858 46.8983C45.8552 42.742 45.8858 38.6011 45.8858 34.4448C45.8858 34.3221 45.8705 34.1994 45.8552 34.0767C44.6589 34.0767 43.5086 34.0767 42.3123 34.0767C42.3123 34.2608 42.3123 34.4295 42.3123 34.5982C42.3123 38.5091 42.3123 42.42 42.3123 46.3309C42.3123 46.6683 42.297 47.021 42.2663 47.3584C42.0209 50.4104 38.6315 52.5423 35.7789 51.4533C33.7391 50.6712 32.5275 48.8921 32.5275 46.6836C32.5275 42.65 32.5275 38.6164 32.5275 34.5675C32.5275 34.4142 32.5275 34.2454 32.5275 34.0767C31.3312 34.0767 30.1963 34.0767 29.0153 34.0767C29 34.1841 29 34.2608 29 34.3528ZM116.65 35.5031C113.414 33.2486 108.552 33.54 105.699 36.7607C104.288 38.3557 103.491 40.1655 103.506 42.3279C103.522 43.8463 103.506 45.3646 103.522 46.883C103.522 47.4044 103.568 47.9259 103.644 48.4473C104.334 52.3582 107.877 55.8243 113.046 55.2569C116.496 54.8735 119.426 52.1588 120.131 48.7387C120.223 48.2786 120.269 47.8185 120.346 47.3124C119.687 47.3124 119.119 47.3124 118.552 47.3124C117.969 47.3124 117.386 47.3124 116.834 47.3124C116.681 47.8185 116.589 48.3093 116.389 48.7387C116.19 49.1835 115.914 49.6129 115.607 49.9963C114.38 51.5147 112.218 52.0975 110.362 51.4533C108.383 50.7785 107.064 49.0455 107.018 47.0363C106.988 45.4413 106.988 43.8463 107.018 42.2513C107.08 39.0152 110.438 36.7147 113.475 37.8343C115.285 38.4937 116.343 39.8127 116.696 41.6991C116.711 41.8065 116.865 41.9752 116.941 41.9752C118.03 41.9905 119.104 41.9905 120.254 41.9905C120.07 39.2299 118.889 37.0674 116.65 35.5031ZM73.3694 55.1955C74.5657 55.1955 75.7006 55.1955 76.8968 55.1955C76.8968 49.3062 76.8968 43.4475 76.8968 37.5582C78.3845 37.5582 79.8415 37.5582 81.2985 37.5582C81.2985 36.3773 81.2985 35.227 81.2985 34.0767C77.1729 34.0767 73.0626 34.0767 68.9524 34.0767C68.9524 35.2423 68.9524 36.3926 68.9524 37.5582C70.4247 37.5582 71.851 37.5582 73.3694 37.5582C73.3694 43.4782 73.3694 49.3369 73.3694 55.1955ZM140.023 53.1251C140.023 52.8643 139.946 52.6803 139.762 52.4963C137.247 50.0117 134.747 47.5118 132.232 45.0119C132.125 44.9045 131.956 44.8278 131.818 44.7358C131.833 44.6745 131.849 44.6285 131.849 44.5671C131.956 44.4904 132.094 44.4138 132.186 44.3217C134.717 41.8065 137.232 39.2913 139.762 36.7607C139.854 36.6687 139.992 36.546 140.008 36.4386C140.023 35.6564 140.023 34.8589 140.023 34.0461C139.272 34.0461 138.581 34.0614 137.876 34.0461C137.615 34.0461 137.431 34.1228 137.247 34.3068C133.919 37.6349 130.591 40.9476 127.263 44.2757C127.14 44.3984 127.002 44.4751 126.849 44.5671C126.956 44.7051 127.002 44.7512 127.033 44.7972C130.468 48.2173 133.888 51.6374 137.324 55.0575C137.401 55.1342 137.508 55.2262 137.6 55.2262C138.382 55.2415 139.18 55.2415 140.008 55.2415C140.023 54.4747 140.008 53.7999 140.023 53.1251ZM123.199 55.2109C124.38 55.2109 125.515 55.2109 126.68 55.2109C126.68 48.1559 126.68 41.1317 126.68 34.0767C125.515 34.0767 124.364 34.0767 123.199 34.0767C123.199 41.1317 123.199 48.1559 123.199 55.2109ZM150.667 41.5611C150.667 44.9352 150.652 48.3093 150.682 51.6834C150.698 53.3704 151.848 54.7201 153.489 55.1342C153.704 55.1802 153.918 55.2415 154.133 55.2415C155.176 55.2569 156.219 55.2415 157.292 55.2415C157.292 54.5514 157.292 53.8766 157.292 53.1557C157.139 53.1557 157.001 53.1557 156.863 53.1557C156.296 53.1557 155.713 53.1557 155.145 53.1557C153.857 53.1557 153.075 52.4042 153.075 51.1159C153.059 47.8339 153.075 44.5518 153.075 41.2697C153.075 41.193 153.09 41.1317 153.105 41.009C154.516 41.009 155.897 41.009 157.308 41.009C157.308 40.3188 157.308 39.6593 157.308 38.9538C155.897 38.9538 154.516 38.9538 153.075 38.9538C153.075 37.2975 153.075 35.6871 153.075 34.0767C152.262 34.0767 151.495 34.0767 150.698 34.0767C150.698 34.2301 150.698 34.3681 150.698 34.5062C150.698 35.8558 150.698 37.2208 150.698 38.5704C150.698 38.8618 150.621 38.9538 150.329 38.9385C149.869 38.9232 149.409 38.9385 148.949 38.9385C148.627 38.9385 148.305 38.9385 147.983 38.9385C147.983 39.6747 147.983 40.3342 147.983 41.009C148.888 41.009 149.762 41.009 150.698 41.009C150.667 41.239 150.667 41.3924 150.667 41.5611ZM145.974 38.9692C145.176 38.9692 144.425 38.9692 143.612 38.9692C143.612 39.1532 143.612 39.3219 143.612 39.4753C143.612 44.5671 143.612 49.6436 143.612 54.7354C143.612 54.8274 143.581 54.9348 143.627 54.9961C143.673 55.0882 143.781 55.2415 143.857 55.2415C144.563 55.2569 145.253 55.2569 145.974 55.2569C145.974 49.797 145.974 44.3831 145.974 38.9692ZM143.597 36.3466C143.597 37.1441 143.505 37.0061 144.271 37.0061C144.839 37.0061 145.406 37.0061 145.974 37.0061C145.974 35.9938 145.974 35.0276 145.974 34.0614C145.192 34.0614 144.44 34.0614 143.597 34.0614C143.597 34.8436 143.597 35.5951 143.597 36.3466Z" fill="black"/>
</g>
<defs>
<clipPath id="clip0_1313_25744">
<rect width="210" height="89.9999" fill="white"/>
</clipPath>
</defs>
</svg>
