<svg width="210" height="90" viewBox="0 0 210 90" fill="none" xmlns="http://www.w3.org/2000/svg">
<g clip-path="url(#clip0_1348_23715)">
<path d="M84.1062 14.1365C84.3947 16.2983 84.6832 18.4743 84.9613 20.6361C85.0026 20.949 84.982 21.2476 84.8068 21.4894C84.7244 21.6174 84.6007 21.7312 84.7347 21.9303C84.7526 21.9577 84.7735 21.9812 84.7965 22C84.7812 21.9838 84.7674 21.9652 84.7553 21.9445C84.6213 21.7454 84.745 21.6316 84.8274 21.5036C85.0026 21.2619 85.0232 20.9632 84.982 20.6503C84.6935 18.4885 84.405 16.3125 84.1268 14.1507L84.034 13.4254C84.0189 13.3639 84.0187 13.2972 84.0336 13.2355C84.0485 13.1739 84.0776 13.1207 84.1165 13.084C84.1505 13.0477 84.1915 13.026 84.2344 13.0217C84.2773 13.0174 84.3201 13.0307 84.3576 13.0599C84.3199 13.0194 84.2731 12.9983 84.2254 13.0001C84.1777 13.0019 84.1319 13.0266 84.0959 13.0698C84.0557 13.1049 84.0256 13.158 84.0106 13.2202C83.9956 13.2824 83.9966 13.3499 84.0134 13.4112L84.1062 14.1365Z" fill="black"/>
<path d="M82.3517 21.0975C82.4491 21.0558 82.5693 21.0369 82.689 21.0444C82.8088 21.0519 82.9195 21.0852 83 21.138C82.9654 21.1033 82.9184 21.0734 82.8624 21.0504C82.8064 21.0273 82.7426 21.0117 82.6754 21.0045C82.6082 20.9973 82.5391 20.9987 82.473 21.0087C82.4068 21.0187 82.345 21.037 82.2919 21.0623C81.8737 21.2032 81.9932 21.397 82.1127 21.626C82.4413 22.084 82.77 22.5244 82.77 23C82.77 22.5244 82.4413 22.084 82.1724 21.6612C82.0529 21.4498 81.9035 21.2561 82.3517 21.0975Z" fill="black"/>
<path d="M71.2175 30.4554C72.8155 31.2733 74.3999 32.0911 75.9843 32.9411C76.201 33.0533 76.3094 33.0052 76.4312 32.7967C76.7835 32.2035 76.9812 31.501 77 30.7762C76.9834 31.4965 76.7853 32.1946 76.4312 32.7807C76.3094 32.9892 76.201 33.0373 75.9843 32.925C74.3999 32.0911 72.8155 31.2573 71.2175 30.4394C71.0184 30.3368 70.9914 30.2181 71.0198 30C71.0049 30.0451 70.9983 30.0934 71.0004 30.1418C71.0025 30.1902 71.0132 30.2375 71.0319 30.2805C71.0506 30.3236 71.0768 30.3615 71.1088 30.3916C71.1408 30.4218 71.1779 30.4435 71.2175 30.4554Z" fill="black"/>
<path d="M81.2081 24.8932C81.7623 24.3819 82.3165 23.8571 82.8707 23.3323C82.939 23.2276 82.9827 23.1153 83 23C82.9848 23.1111 82.9272 23.2169 82.8337 23.3054C82.298 23.8302 81.7438 24.3549 81.1712 24.8662C81.0234 25.0143 80.8387 25.0008 80.6355 24.8797L80 24.5151C80.2254 24.6496 80.4489 24.7748 80.6724 24.9066C80.8959 25.0385 81.0603 25.0277 81.2081 24.8932Z" fill="black"/>
<path d="M86 17.922C86.0181 17.9985 86.0486 18.0361 86.1186 17.9529C86.3987 17.6442 86.687 17.3355 87 17H86.9942C86.6837 17.3328 86.397 17.6402 86.1186 17.9395C86.0527 18.0173 86.0181 17.9931 86 17.922Z" fill="black"/>
<path d="M75.6522 35.9302C75.4204 35.8216 75.5105 35.6045 75.5878 35.403C75.7553 34.9688 75.6393 34.6742 75.2787 34.4881C73.7716 33.6817 72.2516 32.8909 70.7445 32.0846C70.3967 31.8985 70.1649 32.0226 70.0103 32.4257L70 32.4505C70.1546 32.052 70.3864 31.9311 70.7316 32.1156C72.2387 32.9219 73.7458 33.7128 75.2658 34.5191C75.6136 34.7052 75.7295 34.9998 75.5749 35.434C75.4976 35.62 75.4204 35.8371 75.6393 35.9612C75.8583 36.0852 75.9317 35.8883 76 35.7038C75.9317 35.8774 75.8467 36.0341 75.6522 35.9302Z" fill="black"/>
<path d="M74.1995 22.5492C75.2573 21.1435 76.315 19.7378 77.3438 18.3168C77.6046 17.9653 77.822 17.9348 78.1263 18.2404C78.3871 18.5001 78.6769 18.714 78.9522 18.9432C78.9691 18.9568 78.9851 18.9716 79 18.9876C78.9761 18.9607 78.9505 18.9357 78.9232 18.9127C78.6479 18.6835 78.3581 18.4696 78.0973 18.2098C77.793 17.9042 77.5756 17.9348 77.3148 18.2862C76.2716 19.7072 75.2138 21.0977 74.1705 22.5187C74.0633 22.6715 73.9213 22.8243 74.0532 23C73.9488 22.8396 74.085 22.6837 74.1995 22.5492Z" fill="black"/>
<path d="M79.0878 20.2241C79.248 19.9411 79.3958 20.0543 79.5437 20.2241L80.9852 21.9792L81 22C80.9877 21.9792 80.9741 21.9604 80.9606 21.9415L79.519 20.1864C79.3712 19.9977 79.2233 19.8844 79.0632 20.1864C78.9609 20.3751 78.9991 20.4959 79.0632 20.5884C79.0164 20.5016 78.9991 20.3921 79.0878 20.2241Z" fill="black"/>
<path d="M76.0593 21.7987C76.5836 22.1664 77.1078 22.5468 77.6183 22.9271C77.7701 23.0412 77.8528 23.0159 77.9632 22.8891C78.2529 22.5341 78.5427 22.1918 78.8324 21.8495C79.0945 21.5325 79.0393 21.2536 78.7358 21H78.7275C79.0117 21.2612 79.06 21.5338 78.8048 21.8304C78.5151 22.1854 78.2253 22.5278 77.9356 22.8701C77.8252 22.9969 77.7425 23.0222 77.5907 22.9081C77.0802 22.5278 76.556 22.1474 76.0317 21.7797C76.0205 21.7715 76.0099 21.7626 76 21.7531C76.0184 21.7698 76.0382 21.7851 76.0593 21.7987Z" fill="black"/>
<path d="M103.993 13.4758C103.954 12.7543 103.927 12.0328 103.927 11.3113C103.927 11.0463 103.821 10.9874 103.609 11.0021C102.828 11.0463 102.046 11.0904 101.265 11.1052C101.114 11.1052 101.032 11.1434 101 11.2524C101.04 11.1729 101.119 11.1405 101.252 11.1317C102.033 11.1022 102.815 11.0728 103.596 11.0286C103.808 11.0139 103.914 11.0728 103.914 11.3378C103.914 12.0593 103.94 12.7808 103.98 13.5023C104.002 13.6771 103.964 13.8547 103.874 14C103.975 13.8497 104.018 13.6612 103.993 13.4758Z" fill="black"/>
<path d="M93.3096 16.8096C93.2439 16.6048 93.3753 16.5316 93.5197 16.4439C94.0714 16.1367 94.0846 16.1074 93.8744 15.4491C93.3358 13.723 92.771 11.9968 92.2325 10.2706C92.1721 10.0878 92.1011 10.0015 92 10C92.0959 10.0117 92.1629 10.0995 92.2194 10.2706C92.7579 11.9968 93.3227 13.723 93.8613 15.4491C94.0714 16.1074 94.0583 16.1367 93.5066 16.4439C93.3621 16.5316 93.2308 16.6048 93.2964 16.8096C93.3621 17.0144 93.5013 17.0261 93.6458 16.9734C93.4974 17.0144 93.3674 17.0041 93.3096 16.8096Z" fill="black"/>
<path d="M106.643 7.23636C106.288 7.36818 106.096 7.53182 106 8C106.1 7.6 106.288 7.45 106.632 7.32727C106.766 7.29091 106.937 7.35909 107 7C106.923 7.28182 106.768 7.20454 106.643 7.23636Z" fill="black"/>
<path d="M98.4472 7.39691C98.5745 7.41151 98.7019 7.41151 98.8292 7.4261C99.3174 7.44069 99.5933 7.60121 99.6145 7.95143C99.7206 9.83385 99.848 11.7309 99.9753 13.6133C99.9883 13.7459 99.954 13.8786 99.8756 14C99.971 13.8717 100.013 13.7278 99.9965 13.5841C99.8692 11.7017 99.7631 9.80467 99.6357 7.92224C99.6145 7.57202 99.3386 7.41151 98.8504 7.39691C98.7221 7.39442 98.5944 7.38466 98.4684 7.36773C98.2137 7.33854 98.0015 7.28018 98.0227 7.06129C98.0252 7.04062 98.0302 7.02012 98.0375 7C98.0181 7.02851 98.0058 7.05911 98.0015 7.09047C97.9802 7.29477 98.1925 7.36773 98.4472 7.39691Z" fill="black"/>
<path d="M69.1742 32.9558C69.4606 33.0804 69.5784 32.9181 69.6733 32.7587C69.5801 32.9036 69.4606 33.0485 69.1918 32.9268C68.9229 32.8051 69.0336 32.5936 69.1215 32.4197C69.7014 31.3619 70.2637 30.2896 70.8612 29.2318C70.9051 29.1536 70.9508 29.0768 71 29C70.9438 29.0869 70.8928 29.1724 70.8436 29.2608C70.2461 30.3186 69.6838 31.3909 69.1039 32.4486C69.0161 32.6225 68.8931 32.8254 69.1742 32.9558Z" fill="black"/>
<path d="M103.995 9.78238C103.971 9.18158 103.935 8.58077 103.935 7.99332C103.935 7.56609 103.755 7.37917 103.384 7.35247C103.216 7.33912 103 7.37917 103.012 7.08545C103.013 7.05643 103.018 7.02767 103.026 7C103.011 7.0351 103.002 7.07325 103 7.11215C102.988 7.39252 103.204 7.36582 103.372 7.37917C103.743 7.39252 103.923 7.59279 103.923 8.02003C103.923 8.62083 103.959 9.22163 103.983 9.80908C103.991 9.87331 103.985 9.93869 103.966 10C103.997 9.93288 104.007 9.85647 103.995 9.78238Z" fill="black"/>
<path d="M88.7126 18.8936C88.6122 18.731 88.6903 18.6275 88.7795 18.524C89.0806 18.1101 89.0806 18.0214 88.7349 17.6962C88.4962 17.4656 88.2576 17.1345 88 17C88.2442 17.1478 88.4817 17.4582 88.7126 17.6814C89.0583 18.0214 89.0583 18.1101 88.7572 18.5092C88.6791 18.6275 88.5899 18.7162 88.6903 18.8788C88.7198 18.9302 88.758 18.9717 88.8018 19C88.7674 18.9719 88.7372 18.9359 88.7126 18.8936Z" fill="black"/>
<path d="M85 15C85.6987 15.3562 86.3485 15.6768 87 16C86.3572 15.6743 85.7162 15.3537 85 15Z" fill="black"/>
<path d="M95.8582 9.78655C95.6006 9.27059 95.3171 9.01176 95 9C95.3095 9.01681 95.592 9.27731 95.8474 9.78655C95.8896 9.87731 95.9253 9.99832 96 10C95.9329 9.98824 95.8983 9.87395 95.8582 9.78655Z" fill="black"/>
<path d="M90.411 11.7211C90.4546 11.8854 90.526 12.0068 90.6687 11.9997C90.526 11.9997 90.4655 11.8697 90.4268 11.7211C90.3058 11.2924 90.1727 10.8637 90.0396 10.4493C89.967 10.2206 90.0275 10.092 90.2211 10.0063C91.7697 9.34895 93.3304 8.69162 94.879 8.0343C94.9177 8.01587 94.9585 8.00431 95 8C94.9527 8.00177 94.906 8.01338 94.8621 8.0343C93.3135 8.69162 91.7528 9.34895 90.2042 10.0063C90.0227 10.0777 89.9622 10.2206 90.0227 10.4493C90.157 10.878 90.278 11.2924 90.411 11.7211Z" fill="black"/>
<path d="M95.7152 73.1963C94.2964 72.5101 92.8913 71.8099 91.4725 71.1238C91.3265 71.0495 91.1364 70.9207 91 71.0663C91.1378 70.9445 91.3058 71.0663 91.4587 71.1378C92.8776 71.8239 94.2826 72.5241 95.7015 73.2103C95.9907 73.3504 96.0734 73.5184 95.9081 73.8125C95.7152 74.1626 95.5637 74.5267 95.3846 74.8908C95.3673 74.9309 95.3435 74.9678 95.3144 75C95.3502 74.965 95.3787 74.9231 95.3984 74.8768C95.5775 74.5127 95.729 74.1486 95.9219 73.7985C96.0734 73.5044 96.0045 73.3364 95.7152 73.1963Z" fill="black"/>
<path d="M81 73C81.1965 73.3089 81.4867 73.5653 81.8392 73.7415C82.1918 73.9177 82.5932 74.0069 83 73.9996C82.5939 74.0037 82.1939 73.913 81.8421 73.7372C81.4902 73.5613 81.1994 73.3067 81 73Z" fill="black"/>
<path d="M90.1343 77.5742C89.8658 77.9816 90.0168 78.2435 90.4363 78.4617C90.6376 78.5635 90.9396 78.6508 90.755 78.9273C90.7378 78.9536 90.7169 78.978 90.693 79C90.7242 78.9746 90.7508 78.9451 90.7718 78.9127C90.9396 78.6508 90.6376 78.5635 90.4531 78.4471C90.0336 78.2289 89.8994 77.967 90.1511 77.5596C90.4027 77.1523 90.5873 76.7595 90.8054 76.3521C90.8775 76.2182 90.9413 76.1033 91 76C90.9379 76.1062 90.8675 76.227 90.7886 76.3666C90.5705 76.774 90.3859 77.1814 90.1343 77.5742Z" fill="black"/>
<path d="M94.8359 75.0574C95.0751 75.1846 94.9907 75.3349 94.8922 75.4852C94.6107 75.9593 94.3434 76.445 94.0478 76.9191C94.0324 76.9457 94.0169 76.9734 94 77C94.0211 76.9699 94.0422 76.9387 94.0619 76.9075C94.3434 76.4334 94.6248 75.9478 94.9063 75.4737C94.9907 75.3233 95.0892 75.173 94.85 75.0458C94.7247 74.9811 94.6459 74.9926 94.5868 75.0331C94.6459 74.9996 94.7233 74.9996 94.8359 75.0574Z" fill="black"/>
<path d="M88 71C87.9827 73.1031 85.9935 74.9999 83.8024 74.9862C82.8598 74.9974 81.9469 74.674 81.2432 74.0797C80.5396 73.4854 80.0961 72.6632 80 71.7748C80.0975 72.6639 80.5409 73.4867 81.2439 74.0829C81.9468 74.6792 82.8589 75.0061 83.8024 74.9999C85.995 75.0136 87.9856 73.1141 88 71.0096V71Z" fill="black"/>
<path d="M81.0394 71.6004C81.4033 70.0597 82.4192 68.8845 84.0872 68.1794C84.7847 67.8791 85.4823 67.9835 86.0888 68.3883C86.6544 68.75 87.0244 69.2501 86.9986 69.8181C87.0259 69.2371 86.6529 68.7409 86.0888 68.3818C85.4823 67.977 84.7847 67.8726 84.0872 68.1729C82.4192 68.878 81.4033 70.0531 81.0394 71.5939C81.0081 71.7275 80.9954 71.8638 81.0015 72C80.9956 71.866 81.0084 71.7319 81.0394 71.6004Z" fill="black"/>
<path d="M93.0064 73.1728C92.7026 73.8226 92.3835 74.4577 92.0645 75.078C91.9581 75.27 91.9733 75.3734 92.186 75.462C92.4869 75.5849 92.781 75.7229 93.0672 75.8755C93.4546 76.0838 93.7478 76.0232 94 75.75C93.7478 76.0144 93.45 76.0646 93.0884 75.8608C92.7998 75.7131 92.5111 75.5801 92.2073 75.4472C91.9946 75.3586 91.9794 75.2552 92.0857 75.0632C92.42 74.4282 92.7238 73.7931 93.0277 73.158C93.0524 73.097 93.092 73.0428 93.1431 73C93.0817 73.0439 93.0343 73.1038 93.0064 73.1728Z" fill="black"/>
<path d="M98.001 74C97.9709 75.115 98.6424 74.82 99 75C98.6533 74.77 97.9819 75.105 98.001 74Z" fill="black"/>
<path d="M98.3377 81.7077C98.8961 81.6923 98.9481 81.6769 99 81C98.9481 81.6769 98.8961 81.6923 98.3377 81.7077C98.1558 81.7077 98 81.7538 98 82C98.013 81.7692 98.1558 81.7231 98.3377 81.7077Z" fill="black"/>
<path d="M100.618 81.7747C100.784 81.8121 100.981 81.8178 101 82C100.981 81.8178 100.784 81.8121 100.618 81.7747C100.081 81.66 99.9793 81.5308 100.008 81C99.9648 81.5308 100.081 81.6743 100.618 81.7747Z" fill="black"/>
<path d="M69.5177 50.4362C69.3325 50.3004 69.1595 50.1547 69 50C69.1595 50.1547 69.3325 50.3004 69.5177 50.4362C70.4268 51.1148 72.1371 51.1875 73 50.618C72.1371 51.1875 70.4268 51.1148 69.5177 50.4362Z" fill="black"/>
<path d="M69 50C68.6228 49.6845 68.2883 49.3501 68 49C68.2883 49.3501 68.6228 49.6845 69 50Z" fill="black"/>
<path d="M78.5405 61.0005C76.9924 60.9669 74.806 62.4793 74.1995 63.9749C74.0683 64.299 74.0004 64.6477 74 65C74.0042 64.6584 74.072 64.321 74.1995 64.0069C74.806 62.5113 77.0084 61.0157 78.5405 61.0325C79.9066 61.0644 81.0493 62.4037 80.9967 63.8086C81.0701 62.3936 79.9178 61.0325 78.5405 61.0005Z" fill="black"/>
<path d="M73.5705 66.1887C73.107 65.46 72.9216 64.7314 73.0313 64C72.9193 64.7718 73.1097 65.5543 73.5705 66.2161C74.312 67.3688 75.4397 68 77 68C75.4552 68 74.3274 67.3551 73.5705 66.1887Z" fill="black"/>
<path d="M80.4465 65.8594C80.9172 65.3209 81.3762 64.7825 81.847 64.244C81.9023 64.1784 82.0012 64.1212 82 64C81.987 64.0976 81.9058 64.1498 81.847 64.2103C81.388 64.7488 80.9172 65.2873 80.4465 65.8257C80.3288 65.9603 80.2111 66.0445 80.0699 65.8594C80.0504 65.8379 80.0343 65.811 80.0223 65.7804C80.0104 65.7497 80.0029 65.7159 80.0004 65.681C79.9984 65.7219 80.0037 65.7628 80.0159 65.7999C80.028 65.837 80.0466 65.8691 80.0699 65.893C80.2111 66.0781 80.3288 65.994 80.4465 65.8594Z" fill="black"/>
<path d="M82 68C80.8414 68.5486 80 69.7162 80 71C80 69.7263 80.845 68.5564 82 68Z" fill="black"/>
<path d="M86 18C85.9931 17.9839 85.988 17.9676 85.9846 17.9511C85.6769 17.0256 85.3692 16.0827 85 15C85.3692 16.0827 85.6462 17.0256 85.9846 17.9686C85.9883 17.9793 85.9935 17.9898 86 18Z" fill="black"/>
<path d="M137.131 49C136.962 49.1823 136.956 49.384 137.116 49.5678C137.276 49.7516 137.59 49.9051 138 50C137.596 49.9027 137.287 49.749 137.128 49.5661C136.969 49.3831 136.97 49.1827 137.131 49Z" fill="black"/>
<path d="M138.12 50.9997C137.087 50.9864 136.34 50.3731 136.066 49.3066C136.041 49.204 136.02 49.1027 136 49C136.02 49.1027 136.041 49.204 136.066 49.3066C136.34 50.3865 137.087 50.9864 138.12 50.9997C138.917 51.0131 139.452 50.5465 139.9 49.9199C139.934 49.8719 139.966 49.8226 140 49.7732C139.966 49.8226 139.934 49.8719 139.9 49.9199C139.452 50.5465 138.917 51.0131 138.12 50.9997Z" fill="black"/>
<path d="M138 41C137.775 41.0448 137.563 41.1611 137.388 41.3368C137.212 41.5125 137.078 41.7414 137 42C137.191 41.4839 137.486 41.1276 138 41Z" fill="black"/>
<path d="M139.631 30.397C140.033 31.1163 140.451 31.8491 140.854 32.5684C140.908 32.6676 140.946 32.7727 140.966 32.8806C140.971 32.9221 140.961 32.964 140.936 33C140.959 32.9788 140.977 32.9535 140.988 32.9258C140.999 32.8981 141.002 32.8688 140.998 32.8399C140.978 32.7319 140.94 32.6269 140.886 32.5277C140.483 31.8084 140.081 31.0756 139.663 30.3563C139.566 30.1799 139.486 29.9084 139.148 30.0306C139.087 30.0515 139.036 30.0874 139 30.1337C139.034 30.1071 139.073 30.086 139.116 30.0713C139.438 29.9492 139.518 30.2206 139.631 30.397Z" fill="black"/>
<path d="M132.556 32.5625C133.029 33.0875 133.061 33.0875 133.795 32.8375C134.463 32.6125 135.115 32.35 135.783 32.125C135.901 32.0863 135.974 32.0475 136 32C135.95 32.0426 135.887 32.0749 135.816 32.0938C135.148 32.3188 134.496 32.5688 133.827 32.8063C133.094 33.0563 133.061 33.0563 132.588 32.5313C132.458 32.3938 132.328 32.3313 132.132 32.4063C132.075 32.4255 132.029 32.459 132 32.5013C132.026 32.4761 132.061 32.4563 132.099 32.4438C132.295 32.3625 132.425 32.425 132.556 32.5625Z" fill="black"/>
<path d="M135.075 29.371C135.48 30.1496 135.854 30.9435 136.213 31.7375C136.322 31.9817 136.431 32.0733 136.711 31.9359C137.335 31.6153 137.959 31.3252 138.598 31.0504C138.766 30.9912 138.907 30.8775 139 30.7283C138.905 30.8528 138.777 30.9485 138.629 31.0046C137.99 31.2794 137.351 31.5695 136.743 31.8901C136.462 32.0275 136.368 31.9359 136.244 31.6917C135.885 30.8977 135.511 30.1038 135.106 29.3252C135.028 29.1725 135.012 29.0748 135.048 29C134.979 29.0809 134.981 29.1878 135.075 29.371Z" fill="black"/>
<path d="M130.092 28.5153C130.272 28.4512 130.392 28.5153 130.512 28.622C130.947 29.0701 130.962 29.0808 131.637 28.8567C133.273 28.3125 134.894 27.7683 136.53 27.2134C136.706 27.1665 136.866 27.0938 137 27C136.867 27.0754 136.718 27.1365 136.56 27.1814C134.939 27.7363 133.303 28.2805 131.667 28.8247C130.992 29.0488 130.977 29.0381 130.542 28.59C130.437 28.4726 130.317 28.4085 130.122 28.4832C130.066 28.5004 130.023 28.5322 130 28.5718C130.024 28.5482 130.055 28.5289 130.092 28.5153Z" fill="black"/>
<path d="M65.0145 44.4495C65.029 22.7065 82.987 5 105 5C82.9725 5 65.0145 22.7065 65 44.4495C64.987 63.1794 78.2107 78.9205 95.8907 83C78.2107 78.9205 64.9899 63.1794 65.0145 44.4495Z" fill="black"/>
<path d="M137.926 62C138.074 62.1635 137.899 62.2909 137.827 62.4103C136.926 63.8813 136.011 65.3524 135.095 66.8071C135.067 66.8732 135.035 66.9376 135 67C135.041 66.9428 135.073 66.879 135.111 66.8235C136.026 65.3524 136.942 63.8977 137.842 62.4266C137.917 62.3122 138.103 62.1651 137.926 62Z" fill="black"/>
<path d="M130.015 62.2872C130.023 61.3081 130.417 60.4864 131.042 60C130.408 60.4818 130.009 61.3065 130 62.3028C129.986 63.628 131.414 65 132.812 65C133.228 65.0011 133.637 64.8883 134 64.6726C133.641 64.8825 133.237 64.9899 132.827 64.9844C131.414 64.9844 130 63.6124 130.015 62.2872Z" fill="black"/>
<path d="M137.55 25.3818L138.906 28.5871C138.939 28.6488 138.959 28.7179 138.964 28.7894C138.97 28.8609 138.961 28.9329 138.938 29C139.035 28.8769 139.005 28.7103 138.938 28.5328L137.583 25.3275C137.502 25.1283 137.373 24.9109 137.131 25.0377C137.076 25.0608 137.03 25.1035 137 25.159C137.029 25.1303 137.062 25.1076 137.098 25.092C137.341 24.9653 137.454 25.1826 137.55 25.3818Z" fill="black"/>
<path d="M98 84C97.3279 83.7059 96.6612 83.3725 96 83C96.6622 83.375 97.3289 83.7083 98 84Z" fill="black"/>
<path d="M64 44V44.0073C64 66.626 81.9291 85 104 85C81.9319 85 64.0043 66.6158 64 44Z" fill="black"/>
<path d="M145 44C145.014 21.9447 127.093 4.02835 105 4C127.093 4.02835 145.014 21.9589 145 44Z" fill="black"/>
<path d="M138.411 59.2776C138.09 59.3991 137.742 59.5379 138.278 59.7635C138.411 59.8156 138.518 59.885 138.385 59.9717C138.346 59.9907 138.299 60.0005 138.251 59.9995C138.308 60.0024 138.364 59.9926 138.411 59.9717C138.518 59.885 138.438 59.8156 138.304 59.7635C137.769 59.5379 138.117 59.4165 138.438 59.2776C138.572 59.2082 138.866 59.2776 139 59C138.866 59.2776 138.572 59.2082 138.411 59.2776Z" fill="black"/>
<path d="M132.504 61.0529C133.403 61.2506 134.207 61.791 134.77 62.5763C134.866 62.7044 134.943 62.8472 135 63C134.945 62.8414 134.868 62.6931 134.77 62.5604C134.207 61.7751 133.403 61.2347 132.504 61.0371C131.978 60.9101 131.569 61.1164 131.247 61.5449C131.132 61.6997 131.048 61.8785 131 62.0701C131.051 61.8846 131.135 61.7117 131.247 61.5607C131.383 61.3463 131.577 61.1826 131.802 61.0917C132.027 61.0009 132.272 60.9873 132.504 61.0529Z" fill="black"/>
<path d="M142 48C141.753 48.3429 141.418 48.6775 141 49C141.418 48.6775 141.753 48.3429 142 48Z" fill="black"/>
<path d="M138 60C138.53 60 139 59.5479 139 59C139.007 59.5315 138.542 59.9959 138 60Z" fill="black"/>
<path d="M139 59C138.981 58.741 138.871 58.4974 138.69 58.3138C138.509 58.1302 138.268 58.0188 138.012 58H138C138.258 58.0167 138.501 58.127 138.685 58.3108C138.868 58.4945 138.98 58.7393 139 59Z" fill="black"/>
<path d="M137.928 58.0149C138.198 58.0111 138.459 58.1108 138.658 58.2938C138.857 58.4768 138.979 58.7294 139 59C138.979 58.7309 138.859 58.4794 138.663 58.2946C138.468 58.1097 138.211 58.0047 137.943 58C137.757 58.0032 137.575 58.0507 137.411 58.1387C137.247 58.2266 137.106 58.3525 137 58.506C137.107 58.3577 137.246 58.2363 137.407 58.1512C137.568 58.066 137.746 58.0194 137.928 58.0149Z" fill="black"/>
<path d="M133 24C133.647 23.3838 134.294 22.7324 134.926 22.0986C134.955 22.0706 134.98 22.0373 135 22C134.98 22.0373 134.955 22.0706 134.926 22.0986C134.279 22.7324 133.647 23.3662 133 24Z" fill="black"/>
<path d="M134 21C133.54 20.38 132.835 20.01 132 20C132.835 20.02 133.54 20.39 134 21Z" fill="black"/>
<path d="M115.446 8.15229C116.197 8.58619 116.933 9.00202 117.684 9.43592C117.868 9.5444 118.037 9.67096 117.945 9.94215C117.937 9.96218 117.929 9.98152 117.919 10C117.943 9.96663 117.962 9.92875 117.975 9.88791C118.067 9.61672 117.883 9.49016 117.715 9.38169C116.964 8.96586 116.228 8.53195 115.477 8.09805C115.323 8.00765 115.139 7.91726 115.017 8.13421C115.017 8.14686 115.006 8.15771 115 8.16856C115.123 7.98053 115.299 8.06551 115.446 8.15229Z" fill="black"/>
<path d="M133.173 21.0847C133.118 21.054 133.06 21.0257 133 21C133.06 21.0257 133.118 21.054 133.173 21.0847C133.566 21.3141 133.837 21.6266 133.944 21.9733C134.05 22.32 133.986 22.6811 133.761 23C133.99 22.6817 134.057 22.3198 133.95 21.9724C133.844 21.6249 133.57 21.3123 133.173 21.0847Z" fill="black"/>
<path d="M131.438 21.1641C131.508 22.1818 131.83 23.1539 131.969 24.1716C132.182 25.7484 131.259 26.9681 130 27C131.259 26.9681 132.182 25.7484 131.969 24.1716C131.83 23.1539 131.508 22.1818 131.438 21.1641C131.438 21.1073 131.438 21.0527 131.438 21C131.434 21.0532 131.434 21.1094 131.438 21.1641Z" fill="black"/>
<path d="M128.242 16.6012C126.942 18.111 125.625 19.6207 124.342 21.147C123.875 21.6945 123.892 21.7774 124.358 22.2917C124.525 22.4742 124.725 22.6567 124.492 22.889C124.468 22.9175 124.439 22.9409 124.405 22.9579C124.372 22.9748 124.336 22.985 124.299 22.9878C124.262 22.9906 124.224 22.9859 124.189 22.9741C124.154 22.9622 124.121 22.9435 124.093 22.9189C124.121 22.9469 124.155 22.9686 124.192 22.9825C124.229 22.9964 124.268 23.0021 124.308 22.9993C124.347 22.9965 124.386 22.9851 124.42 22.9661C124.455 22.947 124.485 22.9207 124.508 22.889C124.742 22.6401 124.542 22.4742 124.375 22.2917C123.908 21.7609 123.892 21.6945 124.358 21.147C125.658 19.6207 126.958 18.111 128.258 16.6012C128.618 16.1865 128.78 16.004 129 16.0007C128.772 15.9874 128.612 16.1765 128.242 16.6012Z" fill="black"/>
<path d="M119 12C118.986 12.0214 118.97 12.0419 118.953 12.0612C118.315 12.7508 117.651 13.3624 117 14C117.651 13.3624 118.315 12.7508 118.925 12.1002C118.954 12.0695 118.979 12.0359 119 12Z" fill="black"/>
<path d="M120 15.9938C120.13 16.025 120.169 15.9315 120.221 15.8691C121.055 14.8716 121.902 13.8741 122.723 12.861C122.83 12.7464 122.923 12.6142 123 12.4682C122.925 12.5924 122.841 12.7082 122.749 12.8142C121.915 13.8273 121.081 14.8248 120.248 15.8224C120.195 15.8847 120.156 15.9782 120.026 15.9471C120.182 14.3884 120.274 12.8298 120.495 11.2868C120.508 11.1882 120.531 11.0918 120.564 11C120.516 11.1034 120.484 11.2164 120.469 11.3335C120.248 12.8766 120.156 14.4508 120 15.9938Z" fill="black"/>
<path d="M119.378 10.052C120.176 10.2901 120.974 10.5194 121.771 10.7575C121.916 10.8016 122.018 10.8721 121.945 10.978C121.939 10.9856 121.932 10.993 121.925 11C121.944 10.985 121.961 10.9687 121.974 10.9515C122.047 10.8457 121.96 10.7751 121.8 10.731C121.003 10.4929 120.205 10.2548 119.407 10.0255C119.344 10.002 119.267 9.99434 119.194 10.0042C119.121 10.0141 119.057 10.0407 119.016 10.0785C119.01 10.0839 119.004 10.0899 119 10.0961C119.042 10.0608 119.105 10.0366 119.175 10.0284C119.245 10.0203 119.318 10.0287 119.378 10.052Z" fill="black"/>
<path d="M127.438 14.1612C128.213 14.6866 128.972 15.212 129.747 15.7248C129.812 15.7534 129.868 15.7928 129.912 15.8403C129.956 15.8878 129.986 15.9423 130 16C129.986 15.9439 129.958 15.8906 129.917 15.8433C129.876 15.7961 129.824 15.7558 129.763 15.7248L127.454 14.1612C127.318 14.0637 127.169 13.9498 127 14.0236C127.169 13.9699 127.307 14.0774 127.438 14.1612Z" fill="black"/>
<path d="M128 23L128.84 22.2701C128.947 22.1956 129.004 22.0991 129 22C128.999 22.0986 128.943 22.194 128.84 22.2701L128 23Z" fill="black"/>
<path d="M123.323 12.0662C123.803 12.2608 124.296 12.4553 124.776 12.6498C124.813 12.6596 124.846 12.6755 124.875 12.6966C124.904 12.7176 124.927 12.7434 124.943 12.7722C124.959 12.801 124.968 12.8323 124.969 12.8641C124.97 12.8959 124.963 12.9275 124.949 12.957C124.941 12.9718 124.933 12.9862 124.923 13C124.946 12.9789 124.963 12.9537 124.973 12.9263C125.047 12.7829 124.961 12.6908 124.801 12.6191C124.32 12.4246 123.828 12.2301 123.347 12.0355C123.32 12.02 123.289 12.0093 123.257 12.0039C123.224 11.9986 123.191 11.9987 123.158 12.0043C123.126 12.01 123.095 12.021 123.068 12.0367C123.041 12.0525 123.018 12.0726 123 12.0959C123.081 12.014 123.187 12.013 123.323 12.0662Z" fill="black"/>
<path d="M111.329 21.6821C113.459 23.3783 114.966 25.442 115.62 28.0005C116 29.4988 115.772 30.983 115.529 32.4672C115.331 33.6829 115.103 34.8843 114.89 36.0858C114.859 36.2979 114.844 36.5099 114.813 36.7361C114.768 37.0894 114.829 37.3439 115.3 37.4569C115.818 37.57 116.031 37.9234 115.955 38.4181C115.757 39.8317 114.905 40.9201 113.84 41.8813C113.787 41.9311 113.724 41.9713 113.656 42C113.737 41.9705 113.81 41.9251 113.87 41.8671C114.935 40.9059 115.787 39.8175 115.985 38.404C116.061 37.9093 115.848 37.57 115.331 37.4428C114.859 37.3297 114.798 37.0753 114.844 36.7219C114.874 36.5099 114.89 36.2837 114.92 36.0717C115.133 34.8702 115.361 33.6546 115.559 32.4531C115.802 30.9689 116.031 29.4847 115.65 27.9864C114.996 25.4279 113.49 23.3642 111.36 21.668C110.347 20.8786 109.121 20.3606 107.815 20.1696C106.75 20.0141 105.715 20.0283 105 20C105.715 20.0283 106.765 20.0141 107.784 20.1838C109.091 20.3747 110.316 20.8927 111.329 21.6821Z" fill="black"/>
<path d="M108.442 81.6622C108.904 81.5721 109.058 81.3018 108.981 80.8664C108.673 78.9895 108.365 77.1276 108.057 75.2508C108.04 75.1652 108.023 75.0811 108 75C108.017 75.0676 108.031 75.1366 108.042 75.2057C108.365 77.0826 108.658 78.9444 108.966 80.8213C109.043 81.2568 108.889 81.542 108.427 81.6171C108.226 81.6471 108.042 81.7222 108.103 81.9625C108.107 81.9753 108.112 81.9878 108.117 82C108.063 81.7658 108.245 81.6922 108.442 81.6622Z" fill="black"/>
<path d="M107.374 74.3407C108.778 73.9301 110.182 73.5195 111.572 73.0848C111.79 73.0148 111.929 73.0486 112 73.3263C111.936 73.0148 111.791 72.964 111.56 73.0196C110.156 73.4543 108.765 73.8649 107.361 74.2755C107.194 74.3238 106.988 74.3479 107.001 74.7826C107.003 74.8572 107.012 74.9305 107.026 75C107.019 74.9529 107.015 74.9042 107.013 74.8551C107.001 74.4131 107.194 74.389 107.374 74.3407Z" fill="black"/>
<path d="M103.52 41.9981C103.344 42.002 103.168 41.9849 103 41.9478C103.174 41.9889 103.359 42.006 103.544 41.9981C104.273 41.9824 104.814 41.6205 104.908 41.1013C104.941 40.7631 104.965 40.4138 105 40C104.962 40.4232 104.936 40.7646 104.885 41.1013C104.864 41.3374 104.713 41.5598 104.461 41.7255C104.209 41.8912 103.873 41.9884 103.52 41.9981Z" fill="black"/>
<path d="M96.279 41.7081C96.2013 41.8287 96.1065 41.9279 96 42C96.1172 41.9279 96.2211 41.8225 96.3043 41.6913C96.4968 41.398 96.7339 41.1624 97 41C96.7208 41.1566 96.4736 41.3993 96.279 41.7081Z" fill="black"/>
<path d="M119.834 61.0755C119.726 60.8143 119.545 60.5904 119.311 60.4314C119.078 60.2725 118.803 60.1855 118.521 60.1813L115.391 60.0514C114.964 60.0401 114.544 59.9316 114.165 59.7341C111.872 58.5659 109.593 57.3832 107.299 56.2149C107.188 56.1601 107.025 56.1428 107.001 56C107 56.0091 107 56.0183 107.001 56.0274C107.001 56.1716 107.188 56.2005 107.303 56.2582C109.597 57.4264 111.876 58.6091 114.169 59.7774C114.549 59.9749 114.968 60.0834 115.395 60.0947L118.525 60.2245C118.808 60.2288 119.082 60.3158 119.316 60.4747C119.549 60.6337 119.731 60.8576 119.838 61.1188C119.978 61.3897 120.025 61.6998 119.969 62C120.038 61.6856 119.99 61.3568 119.834 61.0755Z" fill="black"/>
<path d="M110.4 80.9827C111.036 80.8827 111.688 80.8114 112.324 80.6971C112.503 80.658 112.669 80.5789 112.807 80.4669C112.945 80.3548 113.051 80.2132 113.116 80.0546C113.255 79.7833 113.379 79.4978 113.503 79.2122C113.514 79.1806 113.531 79.1513 113.554 79.126C113.577 79.1007 113.605 79.0801 113.637 79.0653C113.669 79.0506 113.704 79.0421 113.74 79.0403C113.776 79.0386 113.811 79.0436 113.845 79.0552C113.878 79.0582 113.909 79.069 113.937 79.0865C113.964 79.104 113.986 79.1276 114 79.1551C113.992 79.1178 113.972 79.0837 113.941 79.058C113.911 79.0323 113.872 79.0163 113.831 79.0123C113.763 78.9919 113.689 78.997 113.625 79.0264C113.561 79.0558 113.513 79.1072 113.49 79.1694C113.365 79.455 113.226 79.7262 113.102 80.0118C113.037 80.1704 112.931 80.312 112.793 80.424C112.655 80.5361 112.489 80.6152 112.31 80.6543C111.674 80.7685 111.038 80.8542 110.386 80.9399C110.182 80.9756 110.062 80.9213 110 80.7671C110.007 80.8075 110.023 80.8459 110.048 80.8797C110.073 80.9134 110.106 80.9416 110.145 80.9623C110.183 80.9829 110.226 80.9954 110.27 80.999C110.314 81.0025 110.359 80.9969 110.4 80.9827Z" fill="black"/>
<path d="M103.564 46.3659C103.445 46.8129 103.326 47.2737 103.267 47.7207C103.246 47.8841 103.145 47.9651 103 48C103.175 47.9665 103.297 47.8869 103.326 47.7011C103.386 47.2402 103.504 46.7933 103.623 46.3464C103.648 46.2123 103.784 46.088 104 46C103.868 46.0387 103.758 46.0925 103.682 46.1565C103.606 46.2205 103.565 46.2926 103.564 46.3659Z" fill="black"/>
<path d="M109.39 76.9913C109.83 76.9333 110.269 76.9139 110.708 76.8559C111.326 76.7785 111.473 76.6624 111.457 76.2851C111.457 76.1787 111.375 76.0529 111.652 76.0336C111.724 76.0234 111.8 76.0297 111.864 76.0512C111.929 76.0727 111.977 76.1079 112 76.1497C111.993 76.1256 111.978 76.1025 111.956 76.082C111.934 76.0615 111.905 76.0439 111.871 76.0303C111.836 76.0167 111.798 76.0074 111.758 76.003C111.717 75.9985 111.676 75.9991 111.636 76.0046C111.359 76.0336 111.44 76.1593 111.44 76.2561C111.44 76.6334 111.31 76.7495 110.692 76.8269C110.253 76.8849 109.813 76.9043 109.374 76.9623C109.168 76.9855 109.049 76.9623 109 76.8781C109.049 76.9894 109.161 77.0165 109.39 76.9913Z" fill="black"/>
<path d="M104 71C118.907 71 131.029 58.8696 131 44C131.029 58.8696 118.892 71 104 71Z" fill="black"/>
<path d="M104.48 38.0313C104.908 38.1397 104.969 38.3926 104.969 38.6454C105 39.1692 105 39.693 105 40V38.6454C105 38.4106 104.939 38.1578 104.511 38.0313C104.43 38.007 104.339 37.9965 104.249 38.001C104.159 38.0055 104.073 38.0247 104 38.0566C104.071 38.0297 104.151 38.0133 104.235 38.0089C104.318 38.0045 104.403 38.0122 104.48 38.0313Z" fill="black"/>
<path d="M105 17C108.531 16.999 112.028 17.7053 115.289 19.0783C118.549 20.4512 121.51 22.4637 124 25C121.512 22.4612 118.552 20.447 115.29 19.0739C112.029 17.7008 108.532 16.9959 105 17Z" fill="black"/>
<path d="M90.5298 49.1074C90.7717 49.0527 91.0222 49.0479 91.266 49.0931C91.9881 49.2501 91.9881 49.2643 92.342 48.6652C92.6252 48.1944 93.0641 48.0945 93.5454 48.1659C94.0268 48.2372 94.494 48.4512 94.5931 49.0076C94.7205 49.7779 95.1736 50.2344 95.8249 50.5768C98.4582 51.9749 101.082 53.3777 103.697 54.7853C103.913 54.9181 104.16 54.9919 104.413 54.9994C104.666 55.0069 104.917 54.9478 105.141 54.8281C108.199 53.373 111.243 51.9321 114.301 50.5055C115.094 50.1346 115.731 49.621 116.17 48.8364C116.764 47.7664 118.194 47.7807 118.86 48.8221C118.961 48.9685 119.007 49.1466 118.99 49.3243C119.006 49.2293 119.003 49.132 118.98 49.0383C118.958 48.9447 118.917 48.8566 118.86 48.7793C118.194 47.7521 116.75 47.7236 116.17 48.7936C115.731 49.5925 115.094 50.0918 114.301 50.4627C111.243 51.8893 108.185 53.3444 105.141 54.7853C104.917 54.9049 104.666 54.9639 104.413 54.9563C104.16 54.9488 103.913 54.8752 103.697 54.7425C101.077 53.3302 98.4582 51.9178 95.8249 50.534C95.1736 50.1916 94.7205 49.7351 94.5931 48.9648C94.5082 48.4084 94.0551 48.1944 93.5454 48.1231C93.0641 48.0517 92.6252 48.1373 92.342 48.6224C91.9881 49.2215 91.9739 49.2073 91.266 49.0503C91.0228 48.998 90.7708 49.0029 90.5298 49.0646C90.4006 49.0844 90.2817 49.147 90.1919 49.2427C90.1022 49.3383 90.0467 49.4614 90.0343 49.5925C90.0064 49.7621 89.9955 49.9342 90.0017 50.106C89.9975 49.9484 90.0084 49.7908 90.0343 49.6353C90.0469 49.5043 90.1025 49.3813 90.1922 49.2857C90.282 49.1901 90.4007 49.1274 90.5298 49.1074Z" fill="black"/>
<path d="M120.741 74.6294C120.579 74.3441 120.317 74.1213 120 74C120.286 74.1315 120.524 74.3413 120.683 74.6022C120.765 74.75 120.872 74.8843 121 75C120.894 74.8895 120.807 74.7646 120.741 74.6294Z" fill="black"/>
<path d="M120.237 77.928C120.544 77.6648 120.871 77.4325 121.188 77.1848C121.564 76.8906 121.703 76.3641 121.733 75.7602C121.742 75.6053 121.742 75.4505 121.752 75.2802C121.754 75.2084 121.774 75.1405 121.807 75.0913C121.84 75.042 121.885 75.0153 121.931 75.0169C121.954 75.0135 121.978 75.0177 122 75.0293C121.973 75.0058 121.942 74.9961 121.911 75.0014C121.866 75.0028 121.822 75.0305 121.789 75.0792C121.756 75.1279 121.736 75.194 121.733 75.2647C121.723 75.4195 121.723 75.5744 121.713 75.7447C121.683 76.3641 121.544 76.8751 121.168 77.1693C120.851 77.417 120.534 77.6493 120.217 77.9125C120.185 77.9449 120.15 77.9668 120.112 77.9769C120.075 77.987 120.037 77.9852 120 77.9714C120.039 77.996 120.081 78.005 120.122 77.9974C120.163 77.9898 120.203 77.9659 120.237 77.928Z" fill="black"/>
<path d="M115.269 72.4821C116.751 71.6744 118.248 70.8824 119.729 70.0747C119.769 70.0465 119.814 70.028 119.86 70.0203C119.907 70.0127 119.955 70.0161 120 70.0304C119.952 70.0063 119.899 69.9963 119.847 70.0013C119.795 70.0062 119.744 70.0261 119.701 70.0589C118.219 70.8666 116.722 71.6585 115.24 72.4663C115.096 72.5454 114.938 72.6563 115.025 72.878C115.043 72.9261 115.073 72.9681 115.111 73C115.085 72.9697 115.065 72.9334 115.053 72.8939C114.967 72.6721 115.111 72.5613 115.269 72.4821Z" fill="black"/>
<path d="M117.555 78.899C117.477 78.7167 117.588 78.6185 117.711 78.5344C118.011 78.324 118.077 78.0715 117.911 77.6508C117.344 76.2342 116.799 74.8036 116.243 73.3871C116.193 73.2319 116.108 73.0978 116 73C116.099 73.0974 116.176 73.2261 116.222 73.3731C116.767 74.8036 117.312 76.2202 117.89 77.6367C118.056 78.0435 117.99 78.31 117.689 78.5203C117.567 78.6045 117.456 78.6886 117.534 78.885C117.552 78.9334 117.581 78.9736 117.618 79C117.591 78.9735 117.569 78.9388 117.555 78.899Z" fill="black"/>
<path d="M118.29 74.9396C118.658 74.7384 119.04 74.5373 119.407 74.3362C119.748 74.1495 119.884 73.8622 119.734 73.4599C119.68 73.3163 119.544 73.1295 119.816 73.029C119.876 73.0065 119.941 73.0065 120 73.029C119.967 73.0115 119.932 73.0017 119.895 73.0002C119.859 72.9987 119.823 73.0056 119.789 73.0204C119.53 73.1209 119.653 73.3077 119.707 73.4513C119.857 73.8535 119.721 74.1408 119.38 74.3276C119.012 74.5287 118.631 74.7155 118.263 74.9309C118.143 74.9999 118.067 75.0056 118 74.9467C118.069 75.0257 118.157 75.0114 118.29 74.9396Z" fill="black"/>
<path d="M89.78 59.7001C90.2336 59.2654 90.7605 59.1024 91.3605 59.3741C92.0629 59.6729 92.7068 59.5778 93.3799 59.3198C96.1311 58.2874 98.8823 57.2823 101.633 56.2499C101.78 56.1956 102.014 56.1956 101.999 56.019C102 56.0127 102 56.0063 101.999 56C101.979 56.1535 101.764 56.1576 101.638 56.2092C98.8867 57.2279 96.1209 58.2331 93.3843 59.279C92.6965 59.5371 92.0526 59.6457 91.3648 59.3333C90.7649 59.0752 90.238 59.2383 89.7844 59.6593C89.5625 59.863 89.3751 60.0965 89.2283 60.3521C89.1023 60.55 89.0243 60.7712 89 61C89.0332 60.7858 89.1107 60.5797 89.2283 60.3928C89.3737 60.1375 89.5597 59.904 89.78 59.7001Z" fill="black"/>
<path d="M78 45C78.0279 59.3559 89.6595 71 104 71C89.6735 71 78.0279 59.3559 78 45Z" fill="black"/>
<path d="M102.942 34.7338C102.881 34.9561 102.781 35.1674 102.647 35.3593C102.171 36.0642 101.578 36.693 100.891 37.2217C100.065 37.861 99.0622 38 98 38C99.0622 38 100.065 37.8749 100.906 37.2356C101.59 36.7036 102.182 36.0754 102.662 35.3732C102.79 35.1783 102.889 34.9679 102.957 34.7477C103.06 34.4072 102.982 34.1515 102.684 34C102.969 34.164 103.044 34.4114 102.942 34.7338Z" fill="black"/>
<path d="M116 65C116.296 65.7586 116.649 66.1016 117 65.9739C116.649 66.0929 116.297 65.7507 116 65Z" fill="black"/>
<path d="M109 34C109.932 33.6667 110.877 33.4 112 33C110.893 33.3333 109.947 33.6667 109 34Z" fill="black"/>
<path d="M107 34C106.508 34.0633 106.143 34.3694 106 35C106.062 34.7186 106.192 34.4699 106.372 34.29C106.552 34.1102 106.772 34.0086 107 34Z" fill="black"/>
<path d="M113.911 33.5109C114.19 34.7679 113.793 36.1387 113 37C113.793 36.1387 114.19 34.7679 113.911 33.5109C113.837 33.1606 113.676 33 113.378 33C113.676 33 113.837 33.1606 113.911 33.5109Z" fill="black"/>
<path d="M101.262 77.8077C101.503 77.8558 101.744 77.9519 102 78C101.759 77.9519 101.518 77.8558 101.262 77.8077C101.078 77.7644 100.997 77.5385 101 77C100.997 77.5385 101.077 77.7644 101.262 77.8077Z" fill="black"/>
<path d="M126.564 66.0485C126.853 65.5547 127.248 65.1775 127.701 64.9623C127.92 64.8648 128.073 64.7395 127.92 64.4052C127.844 64.2381 127.942 64.1407 128.03 64.0432C128.048 64.0213 128.071 64.0063 128.095 64C128.081 64.0004 128.067 64.0045 128.054 64.0119C128.04 64.0193 128.029 64.0299 128.019 64.0432C127.931 64.1407 127.844 64.2381 127.909 64.4052C128.062 64.7395 127.909 64.8509 127.69 64.9623C127.237 65.1775 126.842 65.5547 126.553 66.0485C125.393 68.026 126.137 70.8947 128.051 71.7999C128.355 71.9416 128.677 72.0092 129 71.999C128.68 72.009 128.362 71.9415 128.062 71.7999C126.148 70.8947 125.404 68.026 126.564 66.0485Z" fill="black"/>
<path d="M113 37C112.696 37.3873 112.361 37.723 112 38C112.361 37.723 112.696 37.3873 113 37Z" fill="black"/>
<path d="M132.759 68.2393C132.741 67.9584 132.706 67.6786 132.654 67.4013C132.619 67.1918 132.671 67.0629 132.916 67.0145C132.944 67.0078 132.972 67.0029 133 67C132.966 67.0015 132.932 67.0063 132.899 67.0145C132.654 67.0629 132.601 67.1918 132.636 67.4013C132.689 67.6784 132.724 67.9583 132.741 68.2393C132.869 69.7317 131.517 70.9678 130 71C131.511 70.979 132.872 69.7365 132.759 68.2393Z" fill="black"/>
<path d="M110.421 41.898C110.183 43.2524 109.979 44.6067 109.758 45.9464C109.732 46.217 109.75 46.4894 109.809 46.756C109.844 47.011 109.785 47.269 109.639 47.4927C109.494 47.7164 109.27 47.8941 109 48C109.282 47.9012 109.519 47.724 109.673 47.4963C109.826 47.2685 109.889 47.003 109.85 46.7413C109.798 46.4739 109.781 46.2023 109.799 45.9316C110.02 44.5773 110.24 43.2229 110.461 41.8833C110.538 41.4416 110.716 41.1472 111 41C110.689 41.1354 110.5 41.4328 110.421 41.898Z" fill="black"/>
<path d="M102 75C103.048 75.0085 103.833 75.2247 104 76C103.852 75.2234 103.065 75.0085 102 75Z" fill="black"/>
<path d="M119.81 71.7857C119.575 71.4799 119.302 71.2153 119 71C119.282 71.2168 119.541 71.4726 119.769 71.7619C119.831 71.8591 119.909 71.9402 120 72C119.936 71.9381 119.876 71.8571 119.81 71.7857Z" fill="black"/>
<path d="M103.701 74.3662C103.133 74.2485 102.566 74.1264 102 74C102.567 74.1264 103.134 74.2485 103.701 74.3662C103.898 74.413 103.993 74.5766 104 75C103.993 74.5766 103.899 74.413 103.701 74.3662Z" fill="black"/>
<path d="M144 44.5272C144.014 22.7457 126.5 5 105 5C126.5 5 144 22.7457 144 44.5272C143.986 65.9723 126.995 83.4776 105.91 84C126.995 83.4776 143.986 65.9866 144 44.5272Z" fill="black"/>
<path d="M133 68C133 70.1865 131.58 71.8768 130 72C131.592 71.8768 133.01 70.1865 133 68Z" fill="black"/>
<path d="M106.942 41.2642C106.797 41.7596 105.879 42.0992 105.242 41.9666C105.881 42.1123 106.814 41.764 106.96 41.2642C107.201 40.4481 106.312 38.612 105.442 38.1312C105.317 38.0506 105.162 38.0045 105 38C105.155 38.0076 105.304 38.0535 105.424 38.1312C106.294 38.612 107.182 40.4481 106.942 41.2642Z" fill="black"/>
<path d="M104.558 3.00003C81.6447 2.97119 63.0144 21.547 63 44.4639C62.9856 67.3809 81.5438 85.9711 104.442 86C127.341 86.0288 145.971 67.453 146 44.5361C146.029 21.6191 127.442 3.02888 104.558 3.00003ZM104.486 85.1779C82.0485 85.1779 63.8219 66.9482 63.8219 44.5072V44.4928C63.8219 22.0374 82.0917 3.77883 104.529 3.80768C126.98 3.83652 145.192 22.0662 145.178 44.5072V44.5216C145.156 66.9698 126.918 85.1923 104.486 85.1779Z" fill="black"/>
<path d="M144 44.5215C144 22.7432 126.282 5 104.514 5C82.7464 5 65.0143 22.7002 65 44.4356C64.9757 63.1589 78.0408 78.8945 95.5123 82.9726L95.6712 83.007C96.3057 83.1529 96.9445 83.2826 97.5875 83.3962C99.844 83.7956 102.131 83.9977 104.423 84C104.759 84 105.093 83.9962 105.425 83.9885C126.783 83.4663 143.986 65.9635 144 44.5215ZM137.431 62.5222C136.615 63.81 135.785 65.0835 134.955 66.3713C134.921 66.42 134.892 66.4758 134.855 66.5258C134.816 66.5898 134.755 66.6368 134.683 66.6575C134.628 66.6293 134.575 66.5957 134.526 66.5573L134.516 66.5502C134.444 66.4643 134.516 66.3785 134.559 66.3212C134.745 66.0207 134.931 65.7346 135.117 65.4341C135.789 64.3895 136.448 63.3593 137.12 62.3147C137.192 62.2145 137.221 61.957 137.464 62.1144C137.481 62.1268 137.497 62.1407 137.511 62.1559C137.667 62.2932 137.498 62.422 137.431 62.5222ZM133.037 64.9547C131.663 64.9547 130.261 63.6955 130.275 62.4793C130.284 61.5649 130.676 60.808 131.298 60.3658C131.689 60.0866 132.157 59.9365 132.637 59.9366C133.992 59.9366 135.234 61.0312 135.396 62.3347C135.406 62.422 135.412 62.5093 135.413 62.598C135.418 63.019 135.308 63.4332 135.095 63.7963C134.882 64.1593 134.574 64.4574 134.204 64.6585C133.847 64.855 133.445 64.957 133.037 64.9547ZM138.718 59.9466C138.613 60.0651 138.486 60.1614 138.344 60.2297C138.201 60.2981 138.047 60.3371 137.889 60.3444C137.61 60.338 137.345 60.2215 137.152 60.0204C136.959 59.8193 136.854 59.5499 136.859 59.2712C136.853 58.9824 136.945 58.7002 137.119 58.4699C137.222 58.3223 137.358 58.2013 137.517 58.1167C137.676 58.0321 137.852 57.9864 138.032 57.9834C138.292 57.9879 138.54 58.0889 138.729 58.2666C138.919 58.4444 139.035 58.6862 139.055 58.9449C139.055 58.9821 139.055 59.0193 139.055 59.0565C139.061 59.3864 138.94 59.7061 138.718 59.9494V59.9466ZM141.249 47.6237C141.147 48.0358 141.008 48.438 140.834 48.8256C140.726 49.0682 140.604 49.3043 140.468 49.5325C140.411 49.6298 140.349 49.7257 140.286 49.8187L140.193 49.9617C140.154 50.0147 140.117 50.0676 140.079 50.1191C139.563 50.7917 138.948 51.2925 138.032 51.2782C136.844 51.2639 135.986 50.62 135.671 49.4609C135.642 49.3508 135.618 49.242 135.595 49.1318C135.559 48.9558 135.532 48.7798 135.51 48.6053C135.489 48.4307 135.472 48.2275 135.462 48.04C135.446 47.7539 135.442 47.4834 135.442 47.2144C135.411 46.3399 135.508 45.4656 135.728 44.6188C135.781 44.4127 135.84 44.2067 135.903 44.0035C135.934 43.9024 135.967 43.8008 136.001 43.6987C136.103 43.3968 136.216 43.0963 136.336 42.7987C136.416 42.5998 136.499 42.4037 136.585 42.2063C136.702 41.8837 136.903 41.598 137.166 41.3787C137.43 41.1594 137.748 41.0143 138.086 40.9585C138.516 40.8727 138.885 40.6609 139.327 40.8598C139.814 41.0744 140.143 41.4608 140.415 41.9043C141.464 43.5671 141.73 45.7062 141.249 47.6265V47.6237ZM136.526 26.0457C136.479 25.8926 136.443 25.7495 136.554 25.655C136.581 25.6112 136.621 25.5775 136.67 25.5592C136.884 25.459 136.999 25.6307 137.07 25.7881L138.273 28.3208C138.331 28.4639 138.358 28.5927 138.273 28.69C138.251 28.7338 138.216 28.7698 138.172 28.793C137.986 28.9075 137.857 28.793 137.743 28.6213C137.371 28.0346 137.314 28.0203 136.698 28.3065C136.169 28.5498 135.653 28.8073 135.11 29.0506C135.03 29.0829 134.958 29.1316 134.899 29.1937C134.866 29.2638 134.881 29.3568 134.952 29.4984C135.324 30.2282 135.668 30.9723 135.997 31.7163C136.111 31.9453 136.197 32.0311 136.455 31.9024C137.013 31.6019 137.6 31.33 138.187 31.0724C138.322 31.0199 138.44 30.9301 138.527 30.8134C138.565 30.7303 138.584 30.6396 138.582 30.5481C138.58 30.4567 138.557 30.3669 138.516 30.2854C138.456 30.1295 138.357 29.9449 138.484 29.8218C138.516 29.773 138.562 29.7351 138.616 29.7131C138.917 29.5843 138.988 29.8705 139.074 30.0565C139.446 30.8149 139.804 31.5876 140.162 32.3459C140.21 32.4505 140.244 32.5613 140.262 32.675C140.265 32.7056 140.262 32.7365 140.253 32.7657C140.243 32.7948 140.227 32.8215 140.206 32.8439C140.151 32.9116 140.083 32.9663 140.004 33.0042C139.832 33.09 139.818 32.9469 139.761 32.8468C139.332 32.1599 139.317 32.1456 138.587 32.489L134.036 34.6354C133.86 34.7028 133.696 34.7995 133.553 34.9216C133.457 35.0646 133.501 35.2464 133.621 35.6241C133.641 35.6731 133.65 35.7256 133.649 35.7783C133.647 35.831 133.634 35.8828 133.611 35.9303C133.599 35.9633 133.581 35.9932 133.556 36.018C133.531 36.0427 133.501 36.0617 133.468 36.0734C133.282 36.1593 133.168 36.0448 133.082 35.8874C132.667 35.0146 132.266 34.156 131.851 33.2832C131.822 33.2374 131.806 33.1843 131.806 33.1301C131.806 33.0759 131.822 33.0228 131.851 32.977C131.876 32.9286 131.917 32.8903 131.967 32.8682C132.139 32.7824 132.253 32.8539 132.368 33.0113C132.783 33.6123 132.811 33.6123 133.455 33.3261C134.042 33.0542 134.614 32.7681 135.201 32.5105C135.263 32.4889 135.319 32.452 135.363 32.4032C135.373 32.3628 135.374 32.3207 135.365 32.2799C135.357 32.2391 135.34 32.2006 135.316 32.1671C134.944 31.3944 134.572 30.6217 134.214 29.8347C134.128 29.6487 134.042 29.5915 133.856 29.6916C133.183 30.0207 132.496 30.3498 131.809 30.6789C131.73 30.6974 131.66 30.7429 131.61 30.8077C131.551 30.9014 131.526 31.0124 131.537 31.1225C131.566 31.2216 131.604 31.3175 131.652 31.4087C131.685 31.5518 131.761 31.7049 131.675 31.8122C131.659 31.8423 131.638 31.869 131.612 31.8906C131.586 31.9123 131.556 31.9284 131.523 31.9381C131.28 32.0383 131.194 31.838 131.108 31.6663C130.793 30.9937 130.478 30.3212 130.149 29.6487C130.063 29.477 129.978 29.3053 129.906 29.1336C129.881 29.0858 129.867 29.0325 129.867 28.9783C129.867 28.9242 129.881 28.8709 129.906 28.8231C129.928 28.7699 129.969 28.7273 130.022 28.7043C130.208 28.6041 130.322 28.69 130.423 28.8474C130.838 29.4484 130.852 29.4627 131.496 29.1622C133.056 28.4324 134.616 27.7027 136.162 26.9586C136.312 26.8997 136.453 26.8192 136.581 26.7196C136.678 26.578 136.638 26.4091 136.529 26.0485L136.526 26.0457ZM131.947 19.7068C132.777 19.7211 133.478 20.2505 133.936 21.1377C134 21.2593 134.058 21.3852 134.109 21.5112C134.161 21.6371 134.208 21.7673 134.252 21.8961C134.317 22.0678 134.388 22.1908 134.529 22.1823C134.587 22.1781 134.644 22.1615 134.696 22.1336C134.73 22.1151 134.769 22.1048 134.808 22.1035C134.83 22.104 134.851 22.1088 134.871 22.1176C134.892 22.1265 134.91 22.1392 134.925 22.1551C134.947 22.1765 134.966 22.2 134.984 22.2252C134.994 22.237 135.003 22.2494 135.011 22.2624C135.041 22.3043 135.058 22.354 135.061 22.4055C135.061 22.4322 135.057 22.4588 135.048 22.4842C135.042 22.5027 135.033 22.5205 135.022 22.5371C135.004 22.5674 134.981 22.5945 134.954 22.6172C134.367 23.1324 133.766 23.6618 133.165 24.1626C133.134 24.1899 133.098 24.2102 133.058 24.2222C133.019 24.2342 132.978 24.2376 132.937 24.2322C132.896 24.2268 132.857 24.2126 132.822 24.1907C132.788 24.1689 132.758 24.1397 132.735 24.1054C132.709 24.0781 132.689 24.0447 132.678 24.0081C132.673 23.9869 132.673 23.9651 132.676 23.9437C132.68 23.9223 132.688 23.9019 132.7 23.8836C132.715 23.8559 132.732 23.8292 132.751 23.8035L132.778 23.762C132.949 23.5275 133.107 23.2839 133.251 23.0322C133.42 22.682 133.469 22.2854 133.388 21.9047C133.308 21.5239 133.104 21.1807 132.807 20.9288C132.765 20.8951 132.722 20.864 132.677 20.8358C132.591 20.7799 132.5 20.7347 132.403 20.7013C132.311 20.6695 132.215 20.6517 132.117 20.6483C131.961 20.6447 131.805 20.677 131.663 20.7428C131.507 20.8123 131.374 20.9277 131.284 21.0738C131.195 21.2199 131.151 21.3899 131.16 21.5612C131.16 21.6118 131.16 21.6633 131.16 21.7158C131.231 22.6745 131.56 23.5903 131.703 24.549C131.921 26.0342 130.976 27.1832 129.688 27.2133C129.436 27.218 129.183 27.1832 128.941 27.1103C128.838 27.0787 128.737 27.0414 128.638 26.9987L128.604 26.9829C128.525 26.9471 128.449 26.9085 128.375 26.867L128.27 26.8055C128.224 26.7769 128.18 26.7468 128.136 26.7153C128.091 26.6839 128.023 26.6324 127.968 26.588L127.911 26.5393C127.841 26.4792 127.775 26.4149 127.711 26.3476C127.706 26.3425 127.701 26.3377 127.696 26.3333C127.628 26.2589 127.562 26.1816 127.5 26.1015L127.487 26.0857C127.433 26.0113 127.38 25.9427 127.328 25.8568L127.284 25.791C127.253 25.738 127.221 25.6851 127.191 25.6293C127.15 25.552 127.109 25.4733 127.071 25.3918C126.971 25.1771 126.885 24.9625 126.799 24.7479C126.713 24.5332 126.613 24.3043 126.298 24.5046C126.275 24.5211 126.247 24.5297 126.219 24.5289C126.196 24.5283 126.173 24.5203 126.155 24.506C126.134 24.4916 126.116 24.4742 126.1 24.4545C126.085 24.4345 126.069 24.4116 126.055 24.3901C126.034 24.3621 126.016 24.3319 126.002 24.3C125.989 24.27 125.982 24.238 125.98 24.2055C125.978 24.1728 125.983 24.14 125.996 24.1099C126.009 24.0798 126.029 24.0532 126.055 24.0324C126.67 23.4887 127.285 22.9592 127.915 22.4441C127.951 22.4102 127.999 22.3917 128.048 22.3926C128.079 22.3946 128.108 22.4029 128.136 22.4169C128.183 22.4412 128.225 22.4748 128.259 22.5156C128.299 22.5581 128.325 22.6131 128.33 22.6716C128.332 22.7299 128.311 22.7867 128.273 22.8304L127.972 23.2597C127.727 23.6258 127.612 24.0641 127.648 24.5035C127.683 24.9428 127.866 25.3573 128.167 25.6794C128.254 25.7729 128.35 25.8582 128.453 25.9341C128.659 26.0931 128.909 26.1858 129.169 26.2002C129.332 26.1988 129.491 26.157 129.634 26.0786C130.063 25.8496 130.206 25.4776 130.178 25.0197C130.171 24.9196 130.161 24.8194 130.149 24.7207C130.125 24.5218 130.092 24.3243 130.055 24.1283C130.036 24.0295 130.018 23.9322 129.998 23.8335C129.957 23.6375 129.915 23.4429 129.874 23.2468C129.834 23.0508 129.794 22.8562 129.763 22.6587C129.716 22.3907 129.689 22.1195 129.683 21.8474C129.683 21.7558 129.683 21.6643 129.691 21.5713C129.803 20.468 130.647 19.6953 131.95 19.7097L131.947 19.7068ZM126.898 14.5012C126.924 14.4766 126.954 14.4572 126.988 14.4439C127.141 14.3595 127.274 14.4897 127.399 14.6013L129.488 16.39C129.543 16.4254 129.591 16.4715 129.627 16.5256C129.664 16.5796 129.69 16.6406 129.703 16.7048C129.702 16.7409 129.694 16.7766 129.679 16.8095C129.664 16.8424 129.642 16.8719 129.616 16.8962C129.589 16.9205 129.557 16.939 129.523 16.9506C129.489 16.9622 129.453 16.9667 129.416 16.9638C129.356 16.9635 129.297 16.9482 129.245 16.9194C128.924 16.7463 128.741 16.649 128.594 16.6447C128.405 16.6447 128.266 16.8049 127.957 17.1627C126.84 18.4648 125.724 19.7669 124.608 21.0833C124.207 21.5555 124.221 21.6128 124.622 22.0706C124.765 22.228 124.937 22.3711 124.737 22.5858C124.716 22.6131 124.691 22.6358 124.661 22.6522C124.631 22.6687 124.598 22.6784 124.564 22.6809C124.53 22.6833 124.496 22.6784 124.465 22.6664C124.433 22.6545 124.404 22.6357 124.38 22.6115C124.33 22.5772 124.281 22.5371 124.237 22.4999L122.148 20.7113C122.005 20.5825 121.833 20.4394 121.99 20.2391C122.005 20.2129 122.024 20.1898 122.048 20.1713C122.072 20.1528 122.099 20.1393 122.128 20.1314C122.157 20.1235 122.187 20.1215 122.217 20.1255C122.246 20.1295 122.275 20.1394 122.301 20.1547C122.367 20.1869 122.431 20.2247 122.491 20.2677C122.762 20.4509 122.92 20.5367 123.064 20.4966C123.223 20.4182 123.359 20.2999 123.459 20.1532C124.646 18.7796 125.834 17.3916 127.008 16.0036C127.423 15.5171 127.409 15.5028 126.994 15.0163C126.869 14.8589 126.683 14.7015 126.898 14.5012ZM115.076 16.4043C115.262 14.587 115.463 12.7841 115.663 10.9669C115.706 10.509 115.763 10.0368 115.806 9.57888C115.835 9.26408 115.792 8.99221 115.491 8.8205C115.32 8.72034 115.234 8.56294 115.363 8.37692L115.375 8.36118C115.375 8.3526 115.384 8.34401 115.391 8.334C115.506 8.16229 115.677 8.23383 115.82 8.30538C116.522 8.6488 117.209 8.99221 117.91 9.32132C118.067 9.40717 118.239 9.50734 118.153 9.72197C118.141 9.75429 118.123 9.78428 118.1 9.81069C118.009 9.97524 117.851 9.95378 117.681 9.89368C117.453 9.80067 117.32 9.84789 117.24 9.96522C117.201 10.0563 117.176 10.1528 117.166 10.2514C117.023 11.4104 116.894 12.5695 116.751 13.7285C116.722 14.0147 116.693 14.2865 116.665 14.5584L116.744 14.6171C116.756 14.625 116.768 14.6341 116.779 14.6443C117.466 13.9431 118.168 13.2706 118.84 12.5122C118.859 12.491 118.875 12.4686 118.89 12.445C119.207 11.9112 119.068 10.7365 118.668 10.3373C118.568 10.2228 118.454 10.1226 118.568 9.96522L118.581 9.95091C118.585 9.94081 118.591 9.9312 118.597 9.9223C118.638 9.86097 118.701 9.81781 118.773 9.80182C118.845 9.78583 118.92 9.79823 118.983 9.83644C119.77 10.2085 120.558 10.5948 121.345 10.9812C121.502 11.0527 121.588 11.1672 121.516 11.3389C121.503 11.3669 121.487 11.3933 121.468 11.4176C121.45 11.4499 121.425 11.4779 121.396 11.4998C121.366 11.5217 121.332 11.5369 121.296 11.5444C121.259 11.5518 121.222 11.5514 121.186 11.5431C121.15 11.5348 121.116 11.5188 121.087 11.4963C120.801 11.3532 120.635 11.409 120.533 11.5764C120.497 11.6607 120.472 11.7492 120.457 11.8397C120.214 13.2563 120.114 14.6872 119.942 16.1181C120.085 16.1467 120.128 16.0609 120.186 16.0036C121.101 15.0878 122.017 14.1721 122.933 13.242C123.035 13.1446 123.127 13.0383 123.21 12.9243C123.297 12.7483 123.185 12.6381 122.876 12.3834C122.762 12.2833 122.647 12.1831 122.733 12.0257C122.742 12.0114 122.752 11.9985 122.76 11.9857L122.767 11.9756C122.788 11.943 122.815 11.9149 122.846 11.8929C122.878 11.8709 122.913 11.8555 122.951 11.8476C122.989 11.8397 123.028 11.8395 123.065 11.847C123.103 11.8545 123.139 11.8695 123.171 11.8912C123.729 12.1631 124.302 12.435 124.86 12.7068C125.046 12.807 125.146 12.9358 125.06 13.1361C125.048 13.1744 125.028 13.2096 125.001 13.2391C124.914 13.3822 124.785 13.3307 124.645 13.2792C124.287 13.1504 124.03 13.3507 123.786 13.5797C122.885 14.4668 121.983 15.3683 121.081 16.2555C120.38 16.9423 119.693 17.6434 118.992 18.316C118.863 18.4447 118.763 18.6594 118.491 18.5163C118.219 18.3732 118.319 18.1729 118.334 17.9869C118.448 16.8135 118.577 15.6402 118.706 14.4668C118.72 14.2808 118.777 14.1091 118.72 13.9088C118.52 13.9088 118.448 14.0805 118.334 14.1807C117.446 15.0392 116.573 15.8977 115.7 16.742C115.586 16.8564 115.5 17.0711 115.242 16.9423C114.985 16.8135 115.062 16.5903 115.076 16.4043ZM98.8613 7.48977C99.0888 7.48977 99.3178 7.48977 99.5468 7.47975C99.8087 7.46687 100.071 7.45399 100.335 7.44684C100.793 7.41822 101.237 7.40391 101.695 7.37529C101.881 7.36099 102.053 7.40391 102.067 7.64717C102.072 7.69683 102.062 7.74687 102.037 7.79026C101.995 7.90043 101.871 7.92333 101.738 7.94622C101.366 8.00918 101.191 8.05068 101.112 8.18661C101.06 8.36376 101.044 8.5497 101.065 8.73322C101.08 9.34851 101.108 9.96379 101.122 10.5648C101.122 10.808 101.194 10.8939 101.452 10.8796C102.296 10.8223 103.14 10.7937 103.985 10.7794C104.114 10.7794 104.185 10.7508 104.222 10.6978C104.245 10.6326 104.252 10.563 104.242 10.4947C104.214 9.86506 104.171 9.22116 104.171 8.57725C104.171 8.11936 103.956 7.90473 103.513 7.89042C103.312 7.87611 103.055 7.90473 103.069 7.60424C103.071 7.56255 103.081 7.52166 103.099 7.48404C103.16 7.2966 103.385 7.31663 103.555 7.30375C104.443 7.26082 105.33 7.2322 106.217 7.20359C106.432 7.18928 106.604 7.2322 106.618 7.48977C106.626 7.54887 106.612 7.60887 106.579 7.65861C106.522 7.77165 106.368 7.75019 106.246 7.76164C105.938 7.80027 105.768 7.84749 105.674 7.97341C105.603 8.1363 105.577 8.31506 105.598 8.4914C105.655 10.2657 105.727 12.0543 105.812 13.8287C105.841 14.3438 105.956 14.4439 106.485 14.4869C106.685 14.5012 106.914 14.5012 106.914 14.7444C106.922 14.8101 106.904 14.8762 106.864 14.929C106.793 15.0592 106.621 15.0621 106.456 15.0721C105.583 15.1007 104.71 15.1437 103.837 15.1723C103.651 15.1723 103.422 15.2009 103.394 14.9433C103.383 14.8789 103.395 14.8128 103.427 14.7559C103.482 14.6128 103.657 14.6128 103.823 14.5999C103.908 14.6008 103.993 14.5845 104.071 14.552C104.15 14.5196 104.221 14.4716 104.281 14.411C104.379 14.2699 104.419 14.0973 104.396 13.9274C104.353 13.2262 104.324 12.5251 104.324 11.824C104.324 11.5664 104.209 11.5092 103.981 11.5235C103.136 11.5664 102.292 11.595 101.447 11.6236C101.304 11.6322 101.218 11.6637 101.175 11.741C101.161 11.796 101.156 11.8531 101.161 11.9098C101.204 12.5966 101.218 13.2835 101.276 13.9703C101.319 14.5284 101.404 14.6142 101.963 14.6715C102.149 14.6858 102.378 14.6571 102.392 14.929C102.392 14.9685 102.385 15.0078 102.372 15.0449C102.332 15.2395 102.111 15.2309 101.934 15.2438C101.061 15.2867 100.188 15.3154 99.3149 15.3583C99.1003 15.3726 98.857 15.3726 98.8426 15.1007C98.8371 15.0458 98.8496 14.9905 98.8784 14.9433C98.9357 14.8145 99.1003 14.7859 99.2577 14.7859C99.521 14.7773 99.697 14.6872 99.7915 14.5212C99.8444 14.4022 99.8675 14.272 99.8588 14.142C99.7729 12.2962 99.687 10.436 99.6155 8.59013C99.6012 8.24671 99.4151 8.08931 99.0859 8.075C99.0001 8.0607 98.9142 8.0607 98.8283 8.04639C98.6566 8.01777 98.5135 7.94622 98.5278 7.7459C98.5307 7.71515 98.539 7.68514 98.5521 7.65718C98.5951 7.52411 98.7224 7.48977 98.8613 7.48977ZM89.8879 10.2085C91.7198 9.55026 93.566 8.89205 95.3978 8.23383C95.4498 8.21289 95.505 8.20127 95.561 8.19949C95.7041 8.19091 95.7914 8.27104 95.8558 8.43416C96.0132 8.89205 96.185 9.33563 96.3424 9.79352C96.3599 9.8261 96.3705 9.86196 96.3735 9.89884C96.3764 9.93572 96.3717 9.97281 96.3596 10.0078C96.3475 10.0427 96.3283 10.0748 96.3032 10.102C96.278 10.1291 96.2475 10.1508 96.2136 10.1655C96.1794 10.1853 96.1399 10.1938 96.1005 10.1899C96.0018 10.1899 95.9574 10.0854 95.8988 10.0082C95.561 9.57888 95.1832 9.3528 94.7782 9.33849C94.414 9.34585 94.0608 9.46471 93.7663 9.67904C93.6232 9.7649 93.6518 9.86506 93.6948 9.96522C94.3388 11.7395 94.9828 13.5282 95.6268 15.3025C95.6534 15.413 95.7153 15.5119 95.8031 15.5842C95.8909 15.6565 95.9998 15.6982 96.1134 15.7031C96.2136 15.6745 96.3424 15.6316 96.4569 15.603C96.5189 15.5858 96.5829 15.5771 96.6472 15.5772C96.699 15.5724 96.7507 15.587 96.7922 15.6182C96.8338 15.6494 96.8622 15.695 96.8719 15.7461C96.9292 15.9321 96.8004 16.0466 96.643 16.1181C96.2136 16.2755 95.7986 16.4186 95.3692 16.576C94.9113 16.7334 94.4676 16.9051 94.0096 17.0625L93.9467 17.0797C93.7892 17.1312 93.6304 17.114 93.566 16.9194C93.5016 16.7248 93.6375 16.6475 93.7949 16.5617C94.396 16.2612 94.4103 16.2326 94.1814 15.5887C93.5946 13.9002 92.9792 12.2117 92.3924 10.5233C92.3309 10.3559 92.2579 10.27 92.1534 10.2586C92.0764 10.2629 92.0015 10.2849 91.9344 10.3229C91.7913 10.3945 91.6339 10.4374 91.4908 10.4947C90.7323 10.8095 90.6321 10.9812 90.6893 11.7825C90.7036 11.9542 90.7752 12.1402 90.5176 12.1974C90.4905 12.2 90.4632 12.2 90.436 12.1974C90.2671 12.1974 90.1827 12.083 90.1312 11.9184C89.9738 11.4891 89.8306 11.0742 89.6732 10.6449C89.6017 10.4231 89.6732 10.28 89.8879 10.2085ZM84.1203 13.1561C84.1704 13.1126 84.234 13.0878 84.3003 13.086C84.3666 13.0842 84.4315 13.1054 84.4838 13.1461C84.5053 13.1576 84.5282 13.1704 84.5497 13.1847C85.1078 13.5711 85.6517 13.9431 86.2098 14.3295C86.8867 14.7945 87.5665 15.2553 88.2478 15.7174L88.3794 15.8076C89.0798 16.2846 89.7782 16.7615 90.4747 17.2385C90.6067 17.3298 90.7483 17.4066 90.8969 17.4674C91.0216 17.5177 91.1569 17.5361 91.2905 17.5212C91.4242 17.5062 91.552 17.4582 91.6625 17.3816C91.6864 17.3614 91.7157 17.3488 91.7468 17.3452C91.7779 17.3417 91.8093 17.3473 91.8371 17.3615C91.9058 17.3787 91.9459 17.4517 91.9917 17.5247C92.1062 17.7107 92.0203 17.8252 91.8772 17.9253C91.2761 18.326 90.6607 18.7266 90.0453 19.1273C89.9165 19.2131 89.7734 19.299 89.6446 19.3848C89.6015 19.4165 89.5502 19.4349 89.4969 19.438C89.4435 19.441 89.3904 19.4285 89.344 19.402C89.2878 19.3746 89.2388 19.3345 89.2009 19.2847C89.0721 19.1273 89.1866 19.0414 89.2868 18.927C89.6732 18.5406 89.6732 18.4548 89.2296 18.1256C88.9333 17.9096 88.6285 17.6034 88.315 17.466C88.246 17.4373 88.1733 17.4185 88.0989 17.4102C87.7698 17.3816 87.3977 17.8109 87.0399 18.0398C86.725 18.2401 86.4102 18.4548 86.081 18.6694C85.9379 18.7266 85.8234 18.7982 85.8377 18.9699C85.9379 19.4564 86.0381 19.9429 86.1669 20.4151C86.1738 20.4608 86.1901 20.5046 86.2147 20.5438C86.2393 20.5829 86.2718 20.6166 86.31 20.6426C86.4245 20.6884 86.5748 20.6326 86.7307 20.5725C86.8624 20.5281 86.9941 20.3765 87.1243 20.4423C87.19 20.4704 87.2433 20.5212 87.2746 20.5854C87.432 20.8715 87.2173 20.986 87.0456 21.1005L85.5429 22.0878C85.3926 22.188 85.2409 22.2552 85.0992 22.1436C85.0673 22.1247 85.0383 22.101 85.0134 22.0735C84.8273 21.8732 84.999 21.7587 85.1135 21.6299C85.3568 21.3867 85.3855 21.0862 85.3282 20.7714C84.9418 18.5964 84.5411 16.4071 84.1404 14.2322L84.0115 13.5024C83.9868 13.441 83.9842 13.373 84.004 13.3098C84.0238 13.2467 84.0649 13.1924 84.1203 13.1561ZM74.5029 22.829C75.5334 21.4983 76.5781 20.1962 77.6085 18.8654C77.8662 18.5363 78.0808 18.5077 78.3814 18.7939C78.639 19.0371 78.9252 19.2375 79.1971 19.4521C79.2241 19.4736 79.2494 19.497 79.273 19.5222L79.2902 19.5394C79.3407 19.5821 79.3736 19.6419 79.3826 19.7075C79.3916 19.773 79.376 19.8395 79.3388 19.8942C79.2243 20.0803 79.0812 19.9515 78.9524 19.8942C78.2082 19.5794 78.0365 19.6224 77.5356 20.2377C77.1921 20.6669 76.8486 21.1105 76.5051 21.5398C76.3964 21.6728 76.3906 21.7644 76.4865 21.8675C76.4968 21.8782 76.5078 21.8882 76.5194 21.8975C77.0633 22.3125 77.6071 22.7417 78.1366 23.171C78.2941 23.2998 78.3799 23.2712 78.4944 23.1281C78.795 22.7417 79.0955 22.3554 79.3961 21.9547C79.6608 21.6199 79.6107 21.3123 79.3159 21.0175C79.2598 20.9776 79.2067 20.9336 79.1571 20.8859C79.0783 20.8157 79.034 20.727 79.1571 20.5811C79.3431 20.3521 79.5148 20.438 79.6866 20.5811L81.361 21.9118C81.3768 21.9261 81.3925 21.9404 81.4068 21.9562C81.44 21.9758 81.4684 22.0024 81.4903 22.0342C81.5121 22.0659 81.5268 22.102 81.5333 22.1399C81.5399 22.1779 81.5381 22.2168 81.5281 22.254C81.5181 22.2912 81.5002 22.3258 81.4755 22.3554C81.3467 22.5557 81.2322 22.4842 81.0748 22.4126C80.4165 22.0978 80.3163 22.1121 79.8583 22.6702C79.6007 22.985 79.3574 23.3141 79.0855 23.6289C78.9896 23.7362 78.9724 23.8106 79.0368 23.8893L79.0454 23.8965C79.0612 23.9113 79.078 23.9252 79.0955 23.938C79.2902 24.0882 79.4805 24.2385 79.668 24.3887C79.9327 24.5933 80.1975 24.7994 80.4594 25.0097L80.9517 25.3975C81.1092 25.5263 81.2523 25.5406 81.3668 25.3832C81.8104 24.8394 82.2398 24.2814 82.6548 23.7233C82.7272 23.6292 82.7718 23.5167 82.7836 23.3985C82.7836 23.3627 82.7922 23.327 82.7936 23.2912V23.2826C82.7936 23.2321 82.7936 23.1844 82.7936 23.1395C82.7936 22.7532 82.6362 22.3955 82.4788 22.0234C82.4215 21.8374 82.3643 21.68 82.5646 21.5655C82.5901 21.545 82.6197 21.5301 82.6514 21.522C82.6831 21.5139 82.7161 21.5128 82.7483 21.5186C82.7805 21.5244 82.8111 21.5371 82.8379 21.5559C82.8648 21.5746 82.8872 21.5989 82.9038 21.6271C82.9436 21.6709 82.9786 21.7189 83.0083 21.7702C83.2802 22.1851 83.5378 22.6144 83.8241 23.015C83.9815 23.2297 83.9386 23.3728 83.7954 23.5588C82.7078 24.9181 81.6344 26.2775 80.561 27.6512C80.4465 27.7942 80.3177 27.9803 80.1031 27.8229C80.0771 27.8039 80.0535 27.7818 80.0329 27.757C79.8812 27.6139 79.9843 27.4523 80.1031 27.3077C80.3378 27.0115 80.3363 26.7583 80.1131 26.5207C80.083 26.4921 80.053 26.4635 80.0172 26.4349L77.6057 24.5304C77.2784 24.2728 76.9516 24.0143 76.6253 23.7548L75.8339 23.1295C75.4904 22.8576 75.1899 22.829 74.918 23.2154C74.8035 23.3728 74.6317 23.5158 74.4457 23.3441C74.4231 23.3257 74.4033 23.304 74.387 23.2798C74.2568 23.1224 74.397 22.975 74.5029 22.829ZM69.2792 32.3016C69.7515 31.257 70.2095 30.1982 70.696 29.1536C70.7361 29.0663 70.7776 28.9819 70.8234 28.896C70.9601 28.6351 71.1186 28.3862 71.2971 28.152C72.3419 26.7211 73.7587 26.2918 75.5047 26.8642C77.1935 27.4508 78.2239 28.8102 78.2239 30.6417C78.1981 31.2478 78.0623 31.8442 77.8232 32.4017C77.3796 33.4177 76.9359 34.4336 76.4922 35.4352L76.4493 35.5268C76.3735 35.6971 76.2904 35.8659 76.0486 35.7644C75.8067 35.6628 75.8912 35.4496 75.977 35.2778C76.1488 34.8772 76.02 34.6053 75.6335 34.4336C73.9448 33.6896 72.2703 32.9598 70.5959 32.2157C70.2123 32.0454 69.9547 32.1571 69.783 32.5248C69.7701 32.552 69.7572 32.5806 69.7429 32.6078C69.6656 32.7652 69.5697 32.9254 69.3364 32.8024C69.1032 32.6793 69.2076 32.4733 69.2792 32.3016ZM72.943 50.6314C72.1415 51.3039 70.5529 51.2181 69.7085 50.4168C69.5365 50.2564 69.3758 50.0843 69.2277 49.9016C69.179 49.843 69.1318 49.7815 69.0846 49.7199C68.9026 49.4762 68.7413 49.2177 68.6023 48.9472C68.5665 48.8786 68.5336 48.8113 68.5006 48.7412C68.3706 48.4631 68.2601 48.1762 68.1701 47.8826C68.0999 47.6609 68.0412 47.4319 67.9897 47.1987C67.8854 46.7341 67.8316 46.2596 67.8294 45.7835C67.8315 44.9851 67.9699 44.1929 68.2387 43.4411C68.3535 43.113 68.4863 42.7916 68.6366 42.4781C68.7377 42.2664 68.8465 42.056 68.9629 41.8471C69.0096 41.7643 69.0607 41.684 69.116 41.6067C69.1389 41.5738 69.1647 41.5423 69.189 41.5108C69.2134 41.4794 69.2463 41.4393 69.2749 41.405C69.3966 41.2635 69.5307 41.1333 69.6756 41.0158C69.7286 40.9728 69.7815 40.9299 69.8359 40.8884C70.1508 40.6595 70.5086 40.4878 70.895 40.5307C71.3673 40.5736 71.7823 40.8455 72.2403 40.96C72.7555 41.0887 72.9988 41.6039 73.2135 42.0761C73.4397 42.5538 73.6311 43.0473 73.7859 43.5527C73.847 43.7559 73.9028 43.9606 73.9534 44.1666C74.055 44.5792 74.1333 44.9972 74.1881 45.4186C74.2525 45.9407 74.2788 46.4668 74.2668 46.9926C74.2353 47.4119 74.2024 47.8626 74.1466 48.3148C74.1265 48.465 74.1051 48.6167 74.0807 48.7669C73.9419 49.5032 73.5407 50.1641 72.9516 50.6271L72.943 50.6314ZM80 65.3611C80 65.2652 80.0844 65.1851 80.1431 65.0978C80.433 64.7091 80.6422 64.2664 80.7585 63.7957C80.7725 63.7162 80.7816 63.6359 80.7857 63.5553C80.8329 62.3591 79.8082 61.2186 78.5832 61.1914C77.2092 61.1771 75.2343 62.4506 74.6904 63.7241C74.5758 63.9911 74.5145 64.2779 74.5101 64.5684C74.5015 65.8061 75.4761 67.0138 76.7642 67.1297C77.0075 67.1583 77.2651 67.1726 77.5084 67.1869C77.723 67.1869 77.7803 67.3014 77.7803 67.4874C77.7803 67.496 77.7803 67.5017 77.7803 67.5103C77.7803 67.5189 77.7803 67.5103 77.7803 67.5103C77.7803 67.5103 77.7803 67.5203 77.7803 67.526C77.7803 67.5318 77.7803 67.5504 77.7803 67.5604C77.7574 67.7264 77.6286 67.7407 77.494 67.7536L77.3509 67.7621C77.253 67.7779 77.1538 67.7846 77.0547 67.7822C75.6092 67.7822 74.5645 67.124 73.8775 65.922C73.4506 65.2319 73.2743 64.4159 73.378 63.6111C73.4488 63.1237 73.6135 62.6548 73.8632 62.2303C75.1369 60.041 77.942 59.3112 79.9027 60.6706C80.7757 61.2859 81.3482 62.1015 81.5056 63.1747C81.5628 63.5038 81.6487 63.7184 82.0351 63.5896C82.2355 63.5181 82.3213 63.6612 82.4072 63.8043C82.4311 63.8401 82.4412 63.8832 82.4358 63.9259C82.4358 64.0289 82.3171 64.0776 82.2498 64.1334C81.6773 64.5913 81.1192 65.0492 80.5467 65.507C80.4036 65.6215 80.2605 65.6931 80.0887 65.5357C80.0605 65.5163 80.0376 65.4902 80.0221 65.4597C80.0066 65.4292 79.999 65.3953 80 65.3611ZM84.0344 74.9567C83.0984 74.9631 82.1934 74.6209 81.496 73.9966C80.7986 73.3723 80.3586 72.5107 80.2619 71.5798C80.2487 71.4514 80.2421 71.3225 80.2419 71.1934C80.2419 69.5493 81.2594 68.0541 82.6605 67.3515C83.2006 67.072 83.7985 66.9225 84.4065 66.9151C86.5533 66.9151 88.2134 68.5892 88.1991 70.7642V70.7785C88.1848 72.9821 86.2098 74.971 84.0344 74.9567ZM96.3567 73.5974C96.1564 73.9551 95.9989 74.3271 95.8129 74.6992C95.7924 74.7465 95.7628 74.7893 95.7256 74.8251C95.6953 74.8572 95.6564 74.88 95.6135 74.8906C95.5706 74.9013 95.5256 74.8994 95.4837 74.8852C95.4534 74.8763 95.4261 74.8593 95.4047 74.8361C95.3833 74.813 95.3685 74.7844 95.3621 74.7535C95.3476 74.6885 95.3476 74.6211 95.3621 74.5561C95.4909 74.0967 95.4165 73.7605 95.2032 73.5029C95.0065 73.2889 94.761 73.1254 94.4876 73.0264C94.1298 72.869 93.7721 72.6973 93.4286 72.5113C93.3069 72.4412 93.2225 72.4254 93.1509 72.4727C93.1028 72.5141 93.0654 72.5667 93.0422 72.6258C92.7559 73.2411 92.4697 73.8563 92.1548 74.4716C92.0547 74.6577 92.069 74.7578 92.2693 74.8437C92.5556 74.9725 92.8275 75.1012 93.0994 75.2443C93.4457 75.4418 93.7263 75.3874 93.9581 75.137C93.9916 75.0981 94.0232 75.0575 94.0526 75.0154C94.1026 74.941 94.147 74.8236 94.2286 74.7707C94.2887 74.7206 94.3717 74.7063 94.4962 74.7864C94.7395 74.9438 94.6393 75.1298 94.5535 75.3159C94.2672 75.9025 93.981 76.5035 93.6948 77.0902C93.6747 77.1288 93.6533 77.1674 93.6318 77.2047C93.5559 77.3477 93.4572 77.4722 93.2225 77.3907C92.9363 77.2762 93.0937 77.0902 93.1509 76.9185C93.3084 76.4177 93.2368 76.2603 92.7645 76.0027C91.8285 75.5033 91.7083 75.4404 91.3419 76.1458C91.2919 76.2474 91.2375 76.3604 91.1759 76.4921C90.9899 76.8927 90.8325 77.2934 90.6178 77.6797C90.4031 78.0661 90.5176 78.3379 90.8754 78.5526C91.0328 78.667 91.2904 78.7529 91.1473 79.0105C91.1294 79.0423 91.1067 79.0713 91.08 79.0963C90.9298 79.2594 90.7394 79.1163 90.5605 79.0391C89.802 78.6813 89.0292 78.3093 88.2707 77.9373C88.1132 77.8514 87.87 77.7942 87.9701 77.5366C87.989 77.4737 88.0289 77.4191 88.0832 77.3821C88.2005 77.2876 88.358 77.3463 88.4997 77.4222C88.8145 77.5853 89.0435 77.518 89.2152 77.2948C89.2506 77.2448 89.2813 77.1917 89.3068 77.136C90.1226 75.4618 90.924 73.7734 91.7398 72.0992C91.9115 71.7272 91.7398 71.5125 91.4393 71.3551C91.2532 71.255 91.0385 71.1405 91.1817 70.8972C91.1992 70.8647 91.2219 70.8352 91.2489 70.81C91.392 70.6669 91.5881 70.7928 91.7398 70.8686C93.2139 71.5698 94.6737 72.2852 96.1478 72.9864C96.4426 73.1252 96.5142 73.2969 96.3567 73.5974ZM104.328 74.7135C104.285 75.1284 104.257 75.5577 104.228 75.9726C104.214 76.1014 104.199 76.2145 104.043 76.2159H103.991C103.869 76.2087 103.769 76.1673 103.756 76.017C103.63 75.1084 103.04 74.8551 102.25 74.8451H102.196C101.874 74.8449 101.553 74.8162 101.237 74.7592C100.951 74.702 100.879 74.8165 100.865 75.074C100.822 75.7323 100.779 76.3762 100.707 77.0344C100.705 77.0591 100.705 77.084 100.707 77.1088C100.707 77.2691 100.782 77.3363 100.956 77.3492C101.2 77.3635 101.429 77.3921 101.658 77.4064C102.373 77.4636 102.471 77.4207 102.71 76.7639C102.71 76.7639 102.71 76.7539 102.71 76.7482C102.767 76.6051 102.796 76.462 102.996 76.5049C103.172 76.5436 103.248 76.6266 103.253 76.7811C103.255 76.8035 103.255 76.826 103.253 76.8484C103.196 77.6067 103.125 78.3651 103.067 79.1092C103.053 79.2809 102.967 79.3524 102.81 79.3381C102.64 79.3238 102.554 79.2795 102.524 79.0806C102.409 78.2793 102.409 78.2793 101.593 78.1934C101.114 78.1433 100.878 78.119 100.742 78.2235C100.646 78.3007 100.606 78.4481 100.571 78.7057V78.7457C100.561 78.8216 100.553 78.9074 100.543 79.0019V79.0376C100.5 79.5098 100.443 79.9963 100.414 80.4685C100.385 80.998 100.486 81.1268 101.015 81.2412C101.178 81.2784 101.373 81.2842 101.392 81.4659C101.396 81.4958 101.396 81.5261 101.392 81.556C101.363 81.8136 101.134 81.785 100.948 81.7707C100.046 81.6991 99.1446 81.6133 98.243 81.5417C98.0713 81.5274 97.8995 81.4702 97.9138 81.2698C97.9138 81.0409 98.0856 80.998 98.2859 80.998C98.9013 80.9837 98.9586 80.9694 99.0158 80.3398C99.1876 78.5526 99.3307 76.7625 99.5024 74.9925C99.531 74.6491 99.3593 74.4917 99.0602 74.3915C98.8727 74.3386 98.5206 74.423 98.5364 74.1053C98.5364 74.0853 98.5364 74.0653 98.5435 74.0424C98.6151 73.6703 98.9586 73.9136 99.1589 73.8563L101.548 74.0695C102.339 74.1392 103.132 74.2064 103.925 74.2713C104.201 74.2971 104.333 74.3872 104.343 74.6205C104.34 74.6517 104.335 74.6828 104.328 74.7135ZM113.645 79.0348C113.574 79.6071 113.488 80.1938 113.402 80.7662C113.373 80.9808 113.216 80.9951 113.044 81.0237C111.441 81.2813 109.838 81.5245 108.25 81.7821C108.064 81.8107 107.878 81.8393 107.82 81.6104C107.821 81.6081 107.821 81.6056 107.82 81.6032C107.815 81.5916 107.811 81.5797 107.807 81.5675C107.75 81.3385 107.922 81.267 108.108 81.2384C108.537 81.1668 108.68 80.895 108.609 80.48C108.323 78.6914 108.051 76.917 107.75 75.1284C107.74 75.0626 107.727 74.9968 107.712 74.9324C107.636 74.6462 107.503 74.4373 107.163 74.5274C106.947 74.5389 106.744 74.579 106.674 74.4244C106.675 74.4211 106.675 74.4177 106.674 74.4144C106.674 74.4144 106.674 74.4044 106.674 74.3987C106.658 74.3575 106.648 74.314 106.645 74.2699C106.631 74.0123 106.86 73.998 107.046 73.9694C108.606 73.7261 110.152 73.4829 111.712 73.2253C111.969 73.1924 112.13 73.2253 112.201 73.407C112.234 73.4806 112.252 73.5598 112.255 73.6403C112.263 73.7357 112.273 73.8273 112.286 73.915C112.317 74.1211 112.356 74.3285 112.391 74.536C112.409 74.6233 112.426 74.712 112.442 74.7993C112.47 74.9567 112.442 75.0998 112.255 75.1427C112.069 75.1857 112.041 75.0283 111.998 74.9138C111.569 74.0552 111.569 74.0552 110.624 74.184C110.195 74.2413 109.765 74.3271 109.322 74.3844C109.093 74.413 108.992 74.4988 109.035 74.7564C109.15 75.4289 109.25 76.1157 109.35 76.7883C109.353 76.8139 109.358 76.8392 109.365 76.8641C109.412 76.9914 109.508 77.0229 109.694 76.9886C110.08 76.9027 110.467 76.8741 110.853 76.7883C111.397 76.6738 111.511 76.5021 111.511 75.944C111.511 75.8009 111.44 75.6149 111.683 75.572C111.718 75.5639 111.755 75.5631 111.79 75.5696C111.826 75.5762 111.86 75.5899 111.89 75.61C111.92 75.6301 111.945 75.6562 111.965 75.6865C111.985 75.7169 111.998 75.751 112.004 75.7866C112.022 75.8327 112.034 75.8807 112.041 75.9297C112.155 76.6452 112.27 77.3749 112.384 78.0904C112.413 78.2764 112.399 78.4481 112.17 78.491C111.975 78.5254 111.936 78.4123 111.899 78.2921C111.892 78.2739 111.886 78.2553 111.881 78.2363C111.881 78.2263 111.881 78.2149 111.869 78.2049C111.626 77.5466 111.497 77.4751 110.781 77.6039L110.266 77.6897C109.508 77.8185 109.508 77.8185 109.622 78.5483C109.722 79.1636 109.837 79.7788 109.937 80.4084C109.937 80.4342 109.947 80.4557 109.953 80.4786C110.01 80.6331 110.12 80.6875 110.309 80.6517C110.91 80.5658 111.497 80.48 112.084 80.3655C112.249 80.3263 112.402 80.247 112.529 80.1347C112.656 80.0224 112.754 79.8806 112.814 79.7216C112.928 79.4354 113.057 79.1636 113.171 78.8774C113.193 78.815 113.238 78.7635 113.297 78.734C113.355 78.7046 113.424 78.6995 113.486 78.72C113.524 78.7239 113.56 78.7399 113.588 78.7657C113.616 78.7915 113.635 78.8256 113.642 78.8631C113.658 78.919 113.659 78.9783 113.645 79.0348ZM122.684 76.4448C122.686 76.461 122.686 76.4773 122.684 76.4935C122.681 76.5023 122.677 76.5109 122.673 76.5192C122.671 76.5246 122.668 76.5299 122.666 76.535C122.661 76.5427 122.656 76.5499 122.65 76.5565L122.636 76.5736C122.586 76.6152 122.531 76.6508 122.473 76.6795C120.998 77.4093 119.524 78.139 118.036 78.8688C117.914 78.9346 117.775 78.9919 117.672 78.9146C117.625 78.8876 117.587 78.8466 117.564 78.7972C117.463 78.5969 117.607 78.5111 117.764 78.4252C118.15 78.2106 118.236 77.9387 118.022 77.5237C117.277 76.0785 116.576 74.6333 115.875 73.1738C115.815 73.0239 115.716 72.8926 115.589 72.7932C115.446 72.703 115.257 72.7102 115.016 72.859C114.892 72.9277 114.759 72.9477 114.673 72.859C114.635 72.8302 114.606 72.7923 114.587 72.7488C114.501 72.5485 114.658 72.4483 114.801 72.3768C116.276 71.647 117.764 70.9316 119.238 70.2018C119.281 70.1722 119.331 70.1543 119.384 70.1498C119.436 70.1453 119.488 70.1543 119.536 70.1761C119.622 70.2154 119.689 70.2861 119.725 70.3735C119.896 70.7313 120.068 71.0747 120.254 71.4324C120.273 71.4592 120.287 71.4897 120.293 71.522C120.3 71.5542 120.3 71.5875 120.294 71.6197C120.287 71.652 120.273 71.6825 120.254 71.7094C120.235 71.7362 120.211 71.7589 120.183 71.7758C120.159 71.8045 120.125 71.8229 120.089 71.8272C120.052 71.8314 120.015 71.8212 119.985 71.7987C119.922 71.7628 119.868 71.714 119.825 71.6556C119.666 71.4818 119.487 71.328 119.291 71.1977C119.061 71.0876 118.862 71.182 118.351 71.4267C117.936 71.627 117.521 71.8416 117.091 72.042C116.905 72.1278 116.877 72.228 116.977 72.414C117.263 72.9721 117.549 73.5301 117.807 74.1025C117.823 74.1442 117.846 74.1833 117.874 74.2184C117.944 74.277 118.024 74.2713 118.15 74.2026C118.537 73.988 118.938 73.802 119.324 73.6016C119.682 73.4156 119.825 73.1294 119.667 72.7288C119.61 72.5857 119.481 72.3997 119.753 72.2995C119.789 72.2848 119.827 72.278 119.865 72.2795C119.903 72.2809 119.941 72.2907 119.975 72.3081C120.071 72.3574 120.146 72.4412 120.183 72.5428C120.455 73.1151 120.741 73.7018 121.027 74.2742C121.113 74.4459 121.17 74.6033 120.97 74.7321C120.844 74.8136 120.759 74.795 120.698 74.7406C120.635 74.6799 120.581 74.6094 120.54 74.5317C120.462 74.3947 120.343 74.2845 120.201 74.2155C120.1 74.1884 119.994 74.1821 119.89 74.1971C119.786 74.2121 119.686 74.2481 119.596 74.3028C119.238 74.4888 118.866 74.6605 118.494 74.8322C118.308 74.9181 118.279 75.0039 118.365 75.2043C118.68 75.8195 118.98 76.4348 119.267 77.0501C119.307 77.1496 119.377 77.2338 119.469 77.2905C119.522 77.3032 119.577 77.305 119.631 77.2956C119.685 77.2863 119.736 77.266 119.782 77.2361C120.24 76.9929 120.698 76.7783 121.156 76.5493C121.7 76.2774 121.9 75.8052 121.943 75.2329C121.957 75.0755 121.957 74.9324 121.972 74.7893C121.977 74.724 122.006 74.6628 122.053 74.6179C122.101 74.5729 122.164 74.5473 122.229 74.546C122.274 74.5411 122.319 74.5501 122.358 74.5718C122.402 74.5927 122.438 74.6256 122.464 74.6667C122.489 74.7078 122.502 74.7553 122.501 74.8036C122.544 75.3187 122.616 75.8339 122.687 76.3776C122.693 76.3972 122.696 76.4174 122.696 76.4377L122.684 76.4448ZM107.282 71.866C106.348 71.9613 105.41 72.0091 104.471 72.0091C103.535 72.0082 102.598 71.9604 101.666 71.866C87.797 70.4422 76.9788 58.7117 76.9788 44.4785C76.9788 30.2454 87.8356 18.5277 101.715 17.1312C105.55 16.7427 109.424 17.1637 113.086 18.367C116.748 19.5703 120.116 21.5291 122.973 24.1164C125.83 26.7038 128.112 29.8622 129.67 33.387C131.229 36.9119 132.03 40.7247 132.021 44.5787C131.994 58.7847 121.15 70.4751 107.282 71.866ZM129.312 71.6084C128.889 71.6188 128.468 71.5494 128.071 71.4038C125.567 70.4737 124.593 67.526 126.111 65.4942C126.489 64.9868 127.006 64.5993 127.599 64.3781C127.885 64.2636 128.086 64.1491 127.885 63.8057C127.799 63.634 127.914 63.5338 128.028 63.4337C128.041 63.4201 128.057 63.4091 128.074 63.4015C128.091 63.3939 128.11 63.3898 128.128 63.3893C128.213 63.3793 128.279 63.4652 128.343 63.5195C128.873 63.9345 129.388 64.3638 129.903 64.793C130.032 64.8932 130.146 65.0077 130.032 65.1937C130.016 65.2323 129.986 65.2637 129.948 65.2822C129.911 65.3006 129.868 65.3047 129.827 65.2938C129.76 65.2749 129.695 65.2509 129.631 65.2223C129.431 65.1508 129.23 65.0649 129.016 65.0077C128.82 64.9499 128.617 64.919 128.413 64.9161C127.832 64.9161 127.326 65.1708 126.898 65.6516C126.339 66.2812 126.211 67.0109 126.526 67.7693C126.752 68.3341 127.089 68.8482 127.517 69.2813C127.944 69.7145 128.454 70.058 129.016 70.292C129.284 70.404 129.573 70.4591 129.864 70.4537C131.1 70.425 132.212 69.3276 132.107 68.0025C132.093 67.753 132.065 67.5045 132.021 67.2585C131.993 67.0724 132.036 66.958 132.236 66.9151C132.263 66.9078 132.291 66.9035 132.319 66.9022C132.472 66.8893 132.499 67.0052 132.536 67.144C132.635 67.5081 132.688 67.883 132.694 68.2601C132.705 70.0888 131.164 71.5025 129.434 71.6055L129.312 71.6084Z" fill="black"/>
<path d="M131 44.4786C130.973 30.4336 120.03 18.9396 106.212 18.0569C105.643 18.0199 105.074 18.0009 104.504 18C103.784 18 103.073 18.0289 102.369 18.0868C88.7452 19.1816 77.9858 30.6343 78 44.5214C78.0285 59.1416 89.898 71 104.5 71C119.102 71 131.028 59.0846 131 44.4786ZM94.0537 38.0156C94.7368 37.6454 94.7653 37.2468 94.6087 36.5635C94.2672 35.1115 93.8971 33.6594 93.7691 32.1647C93.4844 28.8904 94.2814 25.9578 96.3877 23.3954C97.4694 22.0729 98.7688 21.1646 100.313 20.6906C100.801 20.5391 101.302 20.4324 101.81 20.3717C102.587 20.2777 103.366 20.2009 104.258 20.1767H104.332C104.453 20.1767 104.578 20.1767 104.704 20.1767H104.809C104.972 20.1767 105.139 20.1767 105.311 20.1767C105.98 20.2051 106.948 20.1909 107.944 20.3475C109.166 20.5398 110.312 21.0615 111.26 21.8565C113.253 23.5648 114.662 25.6432 115.274 28.2199C115.629 29.7289 115.416 31.2237 115.188 32.7184C115.003 33.9285 114.79 35.1528 114.59 36.3628C114.562 36.5763 114.548 36.8041 114.519 37.0176C114.477 37.3735 114.534 37.6298 114.975 37.7437C115.459 37.8718 115.658 38.2135 115.587 38.7117C115.402 40.1353 114.605 41.2315 113.608 42.1995C113.552 42.2579 113.483 42.3035 113.408 42.3333C113.194 42.4301 112.967 42.3518 112.755 42.1909C112.357 41.8467 111.899 41.581 111.403 41.408C110.998 41.2656 110.68 41.2656 110.445 41.3895C110.21 41.5133 110.058 41.8165 109.994 42.2436C109.809 43.5391 109.623 44.8488 109.438 46.1585C109.424 46.4202 109.438 46.6828 109.481 46.9414C109.514 47.1945 109.462 47.4512 109.333 47.6715C109.204 47.8918 109.006 48.0631 108.77 48.1586C108.731 48.1773 108.691 48.1939 108.65 48.2084C108.422 48.2938 108.337 48.2511 108.351 47.9949C108.365 47.5251 108.351 47.0696 108.351 46.5998C108.351 46.429 108.323 46.1727 108.152 46.1585C108.112 46.1558 108.071 46.1642 108.035 46.1827C107.978 46.2327 107.932 46.2947 107.9 46.3642C107.869 46.4337 107.853 46.5092 107.853 46.5855C107.839 47.0411 107.853 47.4824 107.839 47.938C107.827 48.0903 107.85 48.2839 107.708 48.365C107.645 48.4036 107.571 48.4202 107.497 48.412C107.198 48.3978 107.184 48.17 107.198 47.9422C107.198 47.5436 107.213 47.1593 107.184 46.7607C107.17 46.5756 107.113 46.3336 106.885 46.3478C106.85 46.3482 106.816 46.3591 106.787 46.3791C106.706 46.4839 106.665 46.6142 106.672 46.7464C106.658 47.1735 106.629 47.5863 106.643 48.0134C106.643 48.1757 106.611 48.2853 106.517 48.3237C106.484 48.3409 106.448 48.3513 106.411 48.3543C106.374 48.3572 106.337 48.3526 106.302 48.3408C106.06 48.2839 105.661 48.4974 105.647 48.0134C105.633 47.7429 105.647 47.4582 105.647 47.1877V46.8461C105.633 46.6325 105.576 46.3763 105.377 46.362C105.333 46.3591 105.289 46.3701 105.251 46.3934C105.154 46.5074 105.104 46.6537 105.109 46.8034C105.076 47.1916 105.071 47.5818 105.095 47.9707C105.109 48.1629 105.048 48.2483 104.953 48.2853C104.842 48.3271 104.724 48.3413 104.607 48.3266C104.393 48.3266 104.123 48.3693 104.166 47.9849C104.208 47.5579 104.208 47.1165 104.222 46.6752C104.222 46.5044 104.222 46.2624 104.023 46.2482C103.992 46.2457 103.961 46.2516 103.934 46.2652C103.83 46.355 103.765 46.4816 103.753 46.6183C103.696 47.0738 103.639 47.5294 103.61 47.9992C103.599 48.1885 103.538 48.2696 103.454 48.3038C103.323 48.3793 103.119 48.3038 102.97 48.3266C102.7 48.3693 102.657 48.2127 102.685 47.9849C102.714 47.5294 102.728 47.0881 102.757 46.6325C102.771 46.4332 102.714 46.2055 102.5 46.1912C102.481 46.189 102.462 46.189 102.443 46.1912C102.318 46.2482 102.284 46.429 102.273 46.5713C102.23 46.9984 102.202 47.4397 102.159 47.8668C102.147 47.9935 102.152 48.1515 102.016 48.17C101.971 48.1874 101.922 48.1909 101.874 48.18C101.675 48.1373 101.419 48.1657 101.433 47.8241C101.461 47.4397 101.49 47.0411 101.49 46.6567C101.49 46.4574 101.533 46.1869 101.262 46.1727C101.218 46.17 101.174 46.1793 101.134 46.1998C101.022 46.3036 100.956 46.4473 100.949 46.5998C100.906 46.913 100.878 47.2404 100.835 47.5536C100.821 47.639 100.849 47.7529 100.764 47.7956H100.748L100.736 47.8041C100.622 47.8611 100.551 47.7472 100.479 47.6903C100.038 47.2916 99.7536 46.8219 99.7536 46.2097C99.7394 45.2275 99.7109 44.2309 99.6825 43.2487C99.68 42.9437 99.6562 42.6392 99.6113 42.3376C99.412 41.3126 98.7574 40.8998 97.7327 41.1275C97.6262 41.151 97.522 41.1834 97.421 41.2243C97.121 41.3621 96.8537 41.562 96.6368 41.8109C96.543 41.9222 96.4259 42.0116 96.2938 42.0728L96.2725 42.0799H96.2568C96.0462 42.1582 95.8441 42.0799 95.6121 41.8336C95.0001 41.1788 94.3739 40.5239 93.7904 39.8406C93.2282 39.1972 93.2994 38.4142 94.0537 38.0156ZM119.444 62.9283C118.945 63.2557 118.675 63.6401 118.675 64.2807C118.689 65.0352 118.191 65.3626 117.053 65.3484C116.737 65.3773 116.422 65.2996 116.156 65.1277C115.87 64.9301 115.66 64.6416 115.558 64.3092C115.331 63.6258 114.847 63.2272 114.249 62.8856C111.203 61.1488 108.158 59.4025 105.112 57.6468C104.935 57.5333 104.732 57.4683 104.522 57.4583C104.312 57.4483 104.103 57.4937 103.916 57.5898C101.141 58.8568 98.366 60.0954 95.5908 61.3481C94.8942 61.6525 94.3044 62.1581 93.8971 62.8002C93.4262 63.5178 92.872 64.1772 92.2462 64.7647C92.0303 64.9811 91.7508 65.1228 91.4486 65.1689C91.1465 65.215 90.8375 65.1632 90.5669 65.021C90.0517 64.7633 89.8225 64.3647 89.9108 63.7013C89.9108 63.6529 89.9179 63.6059 89.9264 63.5589C89.9384 63.4921 89.9465 63.4246 89.9506 63.3568C89.9577 63.1441 89.917 62.9325 89.8315 62.7377C89.746 62.5428 89.618 62.3696 89.4568 62.2307C89.101 61.9019 88.9558 61.6129 88.9928 61.2727C89.0165 61.0328 89.0923 60.8011 89.2148 60.5936C89.3576 60.3258 89.5399 60.081 89.7556 59.8676C90.1968 59.4263 90.7092 59.2554 91.2927 59.5259C91.9616 59.8533 92.5878 59.7395 93.2567 59.469C95.9181 58.3728 98.6079 57.3194 101.284 56.2517C101.406 56.1976 101.615 56.1933 101.635 56.0324C101.617 55.9171 101.433 55.8488 101.312 55.7819C98.7645 54.4532 96.217 53.134 93.6694 51.8243C93.1796 51.5693 92.6205 51.4794 92.0755 51.5681C90.8558 51.756 90.0161 51.0342 89.9933 49.9025C89.987 49.731 89.998 49.5593 90.026 49.39C90.0385 49.2592 90.0943 49.1364 90.1846 49.041C90.2748 48.9455 90.3943 48.883 90.5242 48.8633C90.7665 48.8017 91.0197 48.7968 91.2642 48.849C91.9758 49.0056 91.9901 49.0199 92.3459 48.422C92.6305 47.938 93.0717 47.8525 93.5556 47.9237C94.0679 47.9949 94.5234 48.2084 94.6087 48.7636C94.7368 49.5324 95.1923 49.9879 95.8469 50.3296C98.4941 51.7104 101.127 53.1198 103.76 54.5291C103.977 54.6615 104.226 54.735 104.48 54.7425C104.735 54.75 104.987 54.6912 105.212 54.5718C108.271 53.134 111.346 51.682 114.42 50.2584C115.217 49.8883 115.857 49.39 116.298 48.5928C116.882 47.5251 118.333 47.5536 119.002 48.5786C119.06 48.6557 119.101 48.7436 119.123 48.8371C119.146 48.9305 119.149 49.0276 119.133 49.1224C119.118 49.2505 119.069 49.3723 118.991 49.4754C118.878 49.6264 118.749 49.7648 118.607 49.8883C118.312 50.1402 118.143 50.4093 118.131 50.7552C118.133 50.8758 118.149 50.9958 118.18 51.1125C118.209 51.2221 118.223 51.3351 118.222 51.4485C118.238 51.9211 117.981 52.3254 117.554 52.6215C117.184 52.892 116.785 52.949 116.372 52.6927C115.874 52.3795 115.362 52.3938 114.835 52.6358C112.387 53.7746 109.944 54.9135 107.506 56.0524C107.385 56.1065 107.221 56.1364 107.197 56.2816C107.221 56.4239 107.382 56.4396 107.492 56.4937C109.754 57.6468 112.003 58.8141 114.266 59.9672C114.64 60.1622 115.054 60.2693 115.476 60.2804L118.564 60.4085C118.843 60.4127 119.114 60.4986 119.344 60.6555C119.574 60.8124 119.753 61.0334 119.859 61.2912C120.012 61.5693 120.058 61.8939 119.989 62.2037C119.907 62.5065 119.712 62.7661 119.444 62.9283Z" fill="black"/>
<path d="M131 44C130.986 30.1791 119.938 18.8685 106 18C119.936 18.8685 130.973 30.1791 131 44Z" fill="black"/>
<path d="M102 18C88.5854 19.1182 77.9734 30.8159 78.0001 45C77.986 30.8159 88.5854 19.1182 102 18Z" fill="black"/>
<path d="M137.755 42.2196C137.687 42.3568 137.628 42.505 137.581 42.6491C137.534 42.7931 137.48 42.9358 137.438 43.0813C137.376 43.2981 137.329 43.5163 137.292 43.7358C137.256 43.9554 137.231 44.175 137.217 44.3973C137.207 44.5441 137.203 44.6923 137.202 44.8405C137.202 45.1369 137.214 45.4346 137.24 45.7324C137.278 46.2182 137.346 46.7053 137.369 47.1897C137.369 47.2597 137.369 47.3269 137.369 47.3983C137.369 47.4696 137.369 47.5355 137.369 47.6055C137.37 48.0982 137.266 48.5876 137.061 49.0532C136.98 49.2261 136.98 49.4159 137.059 49.5891C137.139 49.7624 137.294 49.9079 137.496 50C137.652 49.8902 137.618 49.7667 137.583 49.6432C137.564 49.573 137.551 49.502 137.543 49.4305C137.543 49.3852 137.543 49.34 137.532 49.2933V49.2796C137.524 49.0784 137.553 48.8774 137.618 48.6827C138.018 47.3193 138.088 45.9089 137.827 44.5249C137.783 44.3176 137.759 44.1079 137.755 43.8978C137.758 43.7698 137.788 43.6431 137.844 43.5232C137.956 43.2821 138.009 43.0264 137.999 42.7698C137.985 42.5111 137.945 42.2537 137.879 42C137.842 42.0686 137.79 42.1509 137.755 42.2196Z" fill="black"/>
<path d="M137 43C137.293 42.6635 137.622 42.3302 138 42C137.622 42.3397 137.293 42.6571 137 43Z" fill="black"/>
<path d="M71.2057 30.7315C72.8069 31.4606 74.3946 32.2041 75.9823 32.9475C76.1994 33.0475 76.3079 33.0046 76.4301 32.8188C76.7849 32.2963 76.9834 31.674 77 31.0318C76.9998 30.94 76.9949 30.8484 76.9851 30.7573C76.9858 30.7492 76.9858 30.7411 76.9851 30.733C76.9314 30.2858 76.7671 29.8613 76.5088 29.5021C76.3976 29.3469 76.2726 29.2033 76.1356 29.0732C75.6461 28.5964 75.0477 28.2615 74.3987 28.101C72.7703 27.6864 71.3997 28.5728 71.0198 30.3027L71.0116 30.3398C70.9791 30.5343 71.0062 30.64 71.2057 30.7315Z" fill="black"/>
<path d="M74.6969 28.0972C75.4052 28.2336 76.0584 28.5182 76.5927 28.9234C76.7423 29.0341 76.8787 29.1561 77 29.288C76.8777 29.153 76.7414 29.027 76.5927 28.9113C76.0584 28.5061 75.4052 28.2214 74.6969 28.085C72.9195 27.7327 71.4236 28.4982 71.0089 29.9563C71.0089 29.9721 71.0089 29.9854 71 30L71.0089 29.9684C71.4236 28.4982 72.9195 27.7448 74.6969 28.0972Z" fill="black"/>
<path d="M86.0842 68.405C85.4781 67.9756 84.7812 67.8648 84.0843 68.1834C82.4177 68.9313 81.4026 70.1778 81.039 71.8121C81.0087 71.9488 80.996 72.0882 81.0011 72.2276C81.0152 72.4918 81.0939 72.7497 81.2314 72.9824C81.4237 73.2944 81.7041 73.5533 82.0435 73.7322C82.3828 73.911 82.7684 74.0032 83.1601 73.999C83.4736 74.0093 83.7839 73.9372 84.054 73.7913C85.5842 72.9741 86.5993 71.783 86.9629 70.1902C86.9843 70.0991 86.9964 70.0064 86.9992 69.9132C87.0189 69.3191 86.6493 68.7886 86.0842 68.405Z" fill="black"/>
<path d="M83.9313 73.7946C83.6499 73.9377 83.3267 74.0083 83 73.9982C83.3251 74.0119 83.648 73.946 83.9313 73.8082C85.5414 73.0072 86.5833 71.826 86.9621 70.2783C86.9847 70.1867 86.9973 70.0936 87 70C86.9971 70.0913 86.9844 70.1822 86.9621 70.2715C86.5833 71.826 85.5257 72.9936 83.9313 73.7946Z" fill="black"/>
<path d="M85.4272 17.8584V17.8817L85.4375 17.92C85.466 18.0034 85.5204 18.0384 85.6239 17.9417C86.0615 17.5617 86.512 17.18 87 16.775C86.8265 16.6084 86.6557 16.4633 86.4822 16.31C85.9994 15.8867 85.5243 15.4667 85 15C85.1553 16.0333 85.2848 16.9334 85.4142 17.8167C85.4179 17.8309 85.4222 17.8448 85.4272 17.8584Z" fill="black"/>
<path d="M134.847 63.4431C134.998 63.2051 135.039 62.925 134.962 62.6608C134.959 62.6497 134.954 62.6388 134.949 62.6282C134.949 62.6094 134.935 62.5905 134.928 62.573C134.873 62.4521 134.797 62.3391 134.705 62.2377C134.156 61.6163 133.374 61.1887 132.499 61.0324C132.272 60.9805 132.034 60.9912 131.815 61.0631C131.596 61.1349 131.407 61.2645 131.275 61.4342C131.166 61.5536 131.084 61.6904 131.034 61.8372C130.998 61.9596 130.99 62.0872 131.012 62.2122C131.034 62.3373 131.085 62.457 131.161 62.5642C131.407 62.9418 131.745 63.2663 132.152 63.5139C132.558 63.7615 133.022 63.9261 133.509 63.9955C134.249 64.0332 134.619 63.8323 134.847 63.4431Z" fill="black"/>
<path d="M131.198 62.6736C131.107 62.5744 131.047 62.4634 131.021 62.3475C130.995 62.2317 131.004 62.1134 131.047 62C130.999 62.1149 130.988 62.2357 131.014 62.354C131.04 62.4722 131.103 62.5852 131.198 62.6853C131.495 63.0323 131.9 63.3302 132.385 63.5574C132.869 63.7847 133.421 63.9358 134 64C133.418 63.9356 132.865 63.7832 132.381 63.5537C131.896 63.3243 131.492 63.0236 131.198 62.6736Z" fill="black"/>
<path d="M134.97 63C135.022 63.1972 134.994 63.4063 134.893 63.584C134.741 63.8746 134.494 64.0246 134 63.9965C134.494 64.0246 134.741 63.884 134.893 63.5934C134.946 63.5048 134.981 63.4065 134.994 63.3045C135.007 63.2025 134.999 63.0989 134.97 63Z" fill="black"/>
<path d="M138.077 58.0001C137.506 57.9927 136.984 58.5192 137 59.103C136.996 59.3357 137.092 59.5606 137.267 59.7287C137.443 59.8967 137.683 59.9942 137.936 60C138.509 60 139 59.4971 139 58.9265C139 58.8951 139 58.8643 139 58.8339C138.982 58.6158 138.878 58.4111 138.709 58.2578C138.539 58.1045 138.314 58.013 138.077 58.0001ZM138.36 59C138.168 59.1177 137.96 59.2206 138.28 59.4118C138.36 59.4559 138.408 59.5147 138.344 59.5883C138.316 59.606 138.282 59.6143 138.248 59.6118C138.216 59.6145 138.183 59.6115 138.152 59.603C137.981 59.5467 137.815 59.4778 137.656 59.3971C137.512 59.3236 137.208 59.3236 137.24 59.1471C137.255 59.0123 137.301 58.882 137.375 58.7652C137.45 58.6484 137.551 58.5479 137.672 58.4706C137.738 58.4379 137.812 58.4212 137.887 58.4221C137.944 58.4181 138.002 58.4299 138.052 58.4561C138.102 58.4823 138.142 58.5217 138.168 58.5692C138.195 58.6352 138.245 58.6912 138.31 58.7283C138.375 58.7653 138.452 58.7812 138.528 58.7736C138.582 58.7722 138.635 58.7678 138.688 58.7603C138.616 59 138.44 58.9412 138.36 59Z" fill="black"/>
<path d="M137.011 59.1031C136.996 58.5149 137.475 57.9929 138 58.0003C137.471 57.9856 136.986 58.5149 137 59.1031C136.998 59.2189 137.019 59.334 137.062 59.4418C137.104 59.5496 137.168 59.648 137.248 59.7312C137.329 59.8145 137.425 59.8811 137.531 59.9273C137.638 59.9734 137.752 59.9981 137.868 60C137.636 59.9935 137.415 59.8956 137.255 59.7277C137.094 59.5598 137.007 59.3353 137.011 59.1031Z" fill="black"/>
<path d="M106.306 35.3183C107.045 36.0828 107.828 36.8049 108.649 37.4812C109.048 37.8175 109.554 38.0013 110.076 38C110.32 37.9953 110.562 37.9538 110.793 37.877L111.13 37.7639L111.483 37.6409C111.592 37.6028 111.701 37.5646 111.809 37.5236C111.951 37.4713 112.089 37.4085 112.222 37.3356C112.448 37.2107 112.658 37.0593 112.848 36.8846L112.861 36.8733C113.765 36.0393 114.216 34.7119 113.899 33.4948C113.814 33.1555 113.63 33 113.292 33H112.191C111.188 33.0848 110.343 33.1414 109.508 33.212L106.968 33.4241C106.765 33.43 106.57 33.5004 106.411 33.625C106.252 33.7496 106.136 33.9219 106.081 34.1168C105.938 34.555 105.967 34.9791 106.306 35.3183Z" fill="black"/>
<path d="M108.6 37.5992C108.991 37.8599 109.488 38.0021 110 38C109.488 38.001 108.992 37.859 108.6 37.5992C107.794 37.0767 107.026 36.5188 106.3 35.9283C105.968 35.6662 105.94 35.3385 106.079 35C105.94 35.3385 105.968 35.6662 106.3 35.9283C107.026 36.5188 107.794 37.0767 108.6 37.5992Z" fill="black"/>
<path d="M101.582 33.4427L96.2435 33.0052C95.5122 32.9468 95.0295 33.3844 95.0003 34.1282C94.9952 34.7082 95.064 35.2865 95.205 35.8492C95.4522 36.997 96.599 38.0369 97.813 37.999C97.8948 37.9973 97.9763 37.9904 98.0572 37.9786C99.1104 37.9786 100.105 37.8327 100.924 37.1618C101.605 36.607 102.193 35.9473 102.665 35.2075C102.798 35.0061 102.896 34.7844 102.957 34.5512C103.058 34.2128 102.984 33.9503 102.701 33.7811C102.657 33.7567 102.61 33.7362 102.562 33.7198C102.241 33.6032 101.919 33.4573 101.582 33.4427Z" fill="black"/>
<path d="M95.0003 34.125C94.995 34.7033 95.0664 35.2799 95.2126 35.841C95.4825 37.0146 96.6609 38.034 97.9317 37.9991C96.673 38.0311 95.484 37 95.2277 35.8555C95.0816 35.2944 95.0102 34.7178 95.0154 34.1395C95.0458 33.3978 95.5462 32.9615 96.3045 33.0197L101.84 33.456C102.189 33.4705 102.522 33.616 102.856 33.7323C102.906 33.7486 102.954 33.769 103 33.7934C102.952 33.7642 102.901 33.7389 102.848 33.7178C102.524 33.5838 102.182 33.4909 101.832 33.4415C99.9973 33.2815 98.1471 33.1361 96.2969 33.0052C95.5311 32.947 95.0306 33.3833 95.0003 34.125Z" fill="black"/>
<path d="M105.02 38.4231C104.988 38.9045 105.004 39.3714 105.004 39.8528H105.051C105.051 40.3342 105.035 40.8011 105.051 41.2825C105.039 41.3949 105.057 41.5083 105.104 41.6127C105.15 41.717 105.224 41.8091 105.318 41.8806C105.381 41.9212 105.451 41.9518 105.525 41.9711C106.065 42.1038 106.844 41.7639 106.966 41.2679C107.17 40.4509 106.417 38.6127 105.679 38.1313C105.577 38.0535 105.451 38.0076 105.319 38C105.148 38.0102 105.038 38.1517 105.02 38.4231Z" fill="black"/>
<path d="M103.038 41.2616C103.065 41.42 103.136 41.5683 103.245 41.6902C103.354 41.8121 103.496 41.9028 103.656 41.9523C103.766 41.9871 103.881 42.0031 103.997 41.9995C104.229 41.9904 104.448 41.8992 104.614 41.7438C104.779 41.5884 104.878 41.3797 104.892 41.1583C104.926 40.8381 104.943 40.5178 104.968 40.1253C104.977 39.9703 104.988 39.8065 105 39.6279C105 39.377 105 38.9491 104.985 38.5211C104.985 38.3145 104.954 38.1079 104.738 38.0193C104.699 38.0037 104.656 37.9974 104.614 38.001C104.572 38.0046 104.531 38.018 104.495 38.04C104.428 38.0873 104.364 38.1396 104.306 38.1964C103.347 39.0184 102.853 40.022 103.038 41.2616Z" fill="black"/>
<path d="M103.022 41.2947C103.038 41.4593 103.086 41.6135 103.161 41.7387C103.235 41.8639 103.333 41.9547 103.442 42C103.336 41.9495 103.241 41.8568 103.169 41.7324C103.096 41.6079 103.049 41.4564 103.031 41.2947C102.908 40.0286 103.237 39.0038 103.874 38.1598C103.913 38.1018 103.955 38.0483 104 38C103.951 38.046 103.905 38.0995 103.863 38.1598C103.238 38.9887 102.909 40.0286 103.022 41.2947Z" fill="black"/>
</g>
<defs>
<clipPath id="clip0_1348_23715">
<rect width="210" height="89.9999" fill="white"/>
</clipPath>
</defs>
</svg>
