<svg width="210" height="90" viewBox="0 0 210 90" fill="none" xmlns="http://www.w3.org/2000/svg">
<g clip-path="url(#clip0_1313_25189)">
<path d="M10.9779 50.6327C10.4103 49.8183 10.1015 48.8517 10.0917 47.859C10.0519 47.3938 9.86577 45.7278 10.1759 45.36C10.3576 45.1429 10.8228 45.1119 11.3147 45.1429C12.2052 45.1777 13.0969 45.1674 13.9864 45.1119C14.6333 45.0499 15.2537 45.0499 15.4663 45.236C15.8695 45.5727 15.6214 47.2387 15.6524 47.7039C15.6834 48.754 15.6214 49.8618 16.3303 50.7568C17.2165 51.962 19.0775 52.117 19.9104 50.8188C20.4271 49.9201 20.6833 48.8952 20.6504 47.859C20.6504 46.2551 20.6194 44.5581 20.6194 42.9851C20.6194 42.0281 20.4953 41.071 20.5884 40.1139C20.6504 39.281 20.6504 39.1259 21.2353 39.1259H23.0076C24.1197 39.1259 25.223 39.0638 26.3396 39.1259C27.0795 39.1569 27.0795 39.281 27.0485 40.145C26.9865 42.2142 27.2656 44.434 27.0795 46.5298C26.8624 49.0908 24.8287 52.4228 21.9885 52.7019C19.7997 52.919 17.4248 53.1007 15.2315 52.7329C14.9878 52.7019 14.2168 52.6089 13.5345 52.4538C12.5301 52.0951 11.6451 51.4647 10.9779 50.6327Z" fill="black"/>
<path d="M35.5024 50.9429C33.8984 49.5871 33.5883 47.6729 33.5262 45.5328C33.4819 44.6467 33.4819 43.2598 33.4819 42.4313C33.4819 41.935 33.4819 41.4078 33.4819 40.9159C33.4819 40.7609 33.575 40.145 33.575 39.7728C33.5579 39.682 33.5612 39.5886 33.5846 39.4993C33.608 39.41 33.6509 39.3269 33.7102 39.2562C33.7696 39.1854 33.8438 39.1287 33.9277 39.0901C34.0116 39.0515 34.103 39.0319 34.1953 39.0328H34.8555C35.7815 39.0328 36.6766 39.0328 37.6292 39.0639C38.2185 39.0639 39.5123 38.9398 39.7914 39.312C39.9056 39.7651 39.9578 40.2317 39.9465 40.6988C39.9465 41.585 39.9465 42.0591 39.9155 42.9541C39.8845 44.5891 39.8535 46.0557 39.8845 47.704C39.9155 49.2149 40.1282 50.6637 41.9182 51.16C43.8633 51.6828 47.1643 51.7759 48.8923 50.5707C50.4032 49.525 50.2792 47.4248 50.2482 45.7898V39.6221C50.2171 39.2499 50.2482 39.0949 50.5273 39.0949C50.6742 39.0751 50.8222 39.0648 50.9704 39.0639C51.7414 39.0639 51.9895 39.0328 51.9585 39.374V41.7799C51.9585 42.6661 51.9585 44.0928 51.9895 44.9879C52.0668 46.6111 51.9432 48.2378 51.6217 49.8307C50.9084 52.826 47.2707 52.857 44.8337 52.826C43.7995 52.8668 42.7638 52.8461 41.7321 52.7639C41.422 52.7329 39.6319 52.5779 38.3071 52.3209C37.2774 52.0868 36.3169 51.6149 35.5024 50.9429Z" fill="black"/>
<path d="M70.9802 50.5087C70.3643 50.2339 69.7174 50.0168 69.3142 49.7997C68.428 49.4009 67.6172 48.9667 66.7532 48.599C65.0562 47.828 63.3592 46.995 61.6622 46.162C60.8602 45.7588 60.2133 46.162 60.1823 47.0482C60.1513 47.9343 60.1202 48.8205 60.1513 49.6668C60.1513 49.9459 60.1823 50.3181 60.2133 50.6549C60.2443 51.1821 60.3063 51.8601 60.3063 52.1348C60.3063 52.4095 60.2753 52.538 60.1823 52.5778C59.6636 52.6865 59.128 52.6865 58.6093 52.5778C58.1175 52.2367 58.4542 48.5901 58.4542 47.89C58.4542 46.2817 58.4853 44.6777 58.4542 43.0427C58.4542 42.3338 58.0112 39.312 58.4542 39.0949C59.1224 38.941 59.813 38.9095 60.4924 39.0018C60.8292 39.1569 61.3786 39.4449 61.7242 39.6487L64.1922 40.8849C66.8507 42.1787 69.5313 43.4459 72.1676 44.8018C72.3493 44.8948 73.5235 45.6037 73.6475 45.5417C73.7716 45.4797 73.7716 45.236 73.7716 44.9879C73.7716 44.7397 73.7406 44.1017 73.7096 43.7251C73.7096 43.508 73.6786 43.2598 73.6786 43.0117C73.6786 41.966 73.6165 40.8849 73.6475 39.8348C73.6785 39.1569 73.9267 38.9708 74.3254 38.9486C75.0211 38.9088 75.5749 39.7418 75.5749 40.6589C75.606 43.251 75.6636 45.843 75.6946 48.404C75.6946 49.6402 75.7566 50.7479 75.7566 51.8911C75.7566 52.631 75.3889 52.507 74.4628 52.507C74.0596 52.507 73.7229 52.0639 73.3507 51.8911C72.5856 51.3886 71.7943 50.9271 70.9802 50.5087Z" fill="black"/>
<path d="M83.5503 50.8498C83.2652 50.6688 82.9968 50.4627 82.7484 50.2339C82.3173 49.7325 81.9443 49.1841 81.6362 48.599C81.1276 47.534 80.9457 46.3422 81.1134 45.1739C81.3627 43.6908 82.0262 42.3084 83.0275 41.1862C84.0732 40.012 85.4955 39.6443 86.9133 39.2101C88.9781 38.5632 91.2644 38.6562 93.4532 38.8379C94.8401 38.9309 96.5548 39.2411 97.8043 39.981C98.6063 40.4728 101.473 42.2939 99.0981 42.8832C98.141 43.0959 97.9904 42.7281 97.1264 42.0812C95.4108 40.8863 93.3539 40.2799 91.2644 40.3532C90.3237 40.4108 89.4112 40.6967 88.6059 41.1862C88.3913 41.294 88.2017 41.4455 88.0491 41.6309C87.8965 41.8163 87.7843 42.0316 87.7197 42.2629C87.4716 43.0339 87.6267 45.1031 87.6577 45.9981C87.6887 46.738 87.7197 47.509 87.7197 48.2135C87.7508 49.7244 88.0919 50.9296 89.8155 51.1777C90.8346 51.3284 92.7487 51.1777 93.0279 50.0966C93.1331 49.3096 93.1628 48.5143 93.1165 47.7217C93.1165 47.4735 93.1475 46.7336 93.1165 46.2418C93.0855 45.5284 93.1165 45.2847 94.0026 45.2537C95.1458 45.2227 97.1042 45.2537 97.6448 45.2537C98.1853 45.2537 99.7095 45.1917 100.237 45.2537C100.485 45.2847 100.636 45.4088 100.605 45.7455C100.605 45.8386 100.574 47.2254 100.574 47.3495C100.574 47.8767 100.605 48.0274 100.574 48.5547C100.605 48.7994 100.582 49.048 100.505 49.2825C100.428 49.5171 100.3 49.7316 100.13 49.9105C99.4802 50.4009 98.7894 50.8352 98.0657 51.2087C96.5814 52.1614 94.3305 52.6266 92.6025 52.7817C90.2985 53.0188 87.9704 52.7974 85.7524 52.1303C84.9491 51.8357 84.2037 51.4023 83.5503 50.8498Z" fill="black"/>
<path d="M105.071 51.6828C105.288 51.3727 105.536 51.098 105.687 50.8808C105.904 50.5087 106.09 50.1409 106.307 49.7997C106.799 48.9357 107.384 48.1027 107.911 47.2697C109.112 45.298 110.286 43.3219 111.491 41.3501C111.934 40.6678 112.324 39.9589 112.754 39.2499C113.587 37.9561 113.742 37.3668 114.668 38.9708C115.869 41.102 117.074 43.1978 118.275 45.329C119.387 47.3007 120.53 49.2459 121.638 51.222C122.081 51.993 121.7 52.6089 120.805 52.6399H118.647C118.204 52.6399 117.136 52.826 116.826 52.6089C116.21 52.2057 116.383 50.9739 115.625 50.6017C115.036 50.296 113.618 50.5707 112.94 50.5707C112.054 50.5707 111.212 50.5397 110.348 50.5397C109.484 50.5397 108.341 50.265 107.725 50.7568C107.109 51.2486 107.171 52.2677 106.524 52.5779C106.224 52.6646 105.908 52.6858 105.598 52.6399C105.483 52.6496 105.367 52.6258 105.266 52.5712C105.164 52.5166 105.08 52.4337 105.024 52.3325C104.968 52.2312 104.943 52.116 104.951 52.0007C104.96 51.8854 105.001 51.775 105.071 51.6828ZM113.153 49.0775L113.742 49.1085C114.726 49.1085 114.695 48.5857 114.389 47.9964C113.89 47.0955 113.344 46.2214 112.754 45.3778C112.258 44.6378 111.735 44.3277 111.181 45.1296C110.845 45.6374 110.536 46.1625 110.255 46.7026C109.914 47.3185 109.453 47.8767 109.112 48.4749C108.957 48.7806 108.926 49.0598 109.36 49.0908H110.317C111.261 49.0389 112.208 49.0345 113.153 49.0775Z" fill="black"/>
<path d="M138.267 52.6709C137.496 52.6399 136.14 52.6089 135.245 52.6089C134.35 52.6089 133.579 52.6089 132.746 52.5779C131.913 52.5468 130.433 52.6399 129.538 52.6709C128.798 52.7019 128.085 52.7019 127.934 52.5158C127.783 52.3297 127.991 51.3727 127.991 51.0669V47.7483C127.96 45.3423 127.991 42.0414 127.991 39.6664C127.991 38.7803 128.178 38.9575 129.073 38.9575C129.844 38.9575 131.696 39.0771 132.467 39.0771C133.353 39.0771 133.579 39.0771 133.548 39.9633C133.486 41.6913 133.548 44.3454 133.579 45.9183C133.61 47.0305 133.61 48.0806 133.61 49.1883C133.61 49.4674 133.486 50.4555 133.641 50.6106C133.796 50.7657 134.629 50.6416 134.873 50.6416C136.849 50.6726 137.531 50.6726 139.441 50.6726C140.579 50.6726 141.785 50.6416 142.959 50.6726C143.88 50.6726 144.93 50.3314 145.086 51.4436C145.101 51.8564 145.07 52.2695 144.993 52.6753C144.775 52.8614 143.451 52.6753 143.14 52.6753H141.045C140.602 52.6753 140.119 52.7064 139.622 52.7374L138.267 52.6709Z" fill="black"/>
<path d="M155.237 52.6222C154.453 52.4743 153.687 52.2472 152.95 51.9443C152.516 51.7901 152.094 51.6035 151.687 51.386C150.908 51.0436 150.215 50.5307 149.66 49.885C149.105 49.2393 148.701 48.4774 148.48 47.6552C147.89 45.3733 148.262 43.1801 149.897 41.39C151.253 39.9412 153.384 39.2632 155.299 38.9221C156.278 38.7756 157.27 38.7355 158.258 38.8024C159.326 38.857 160.388 38.9903 161.435 39.2012C162.822 39.5114 164.337 40.0032 165.352 40.8052C168.285 43.087 168.037 47.8413 165.507 50.3093C164.244 51.541 162.796 52.4981 161.037 52.6842C159.971 52.7984 158.9 52.8502 157.829 52.8393C156.961 52.828 156.094 52.7554 155.237 52.6222ZM157.239 51.7582C158.936 51.8512 161.037 51.8512 161.466 50.615C161.807 49.689 161.528 48.085 161.497 47.1014V44.341C161.556 43.4886 161.567 42.6336 161.533 41.7799C161.285 39.8038 158.91 40.0519 157.399 40.0829C156.225 40.0829 154.838 39.8348 154.297 41.1641C154.051 41.8561 153.936 42.5877 153.956 43.3219C153.956 44.208 154.111 45.5727 154.142 46.4234C154.173 46.9197 154.173 47.3805 154.173 47.9078C154.173 48.9534 154.049 49.9415 154.421 50.7125C154.794 51.4834 156.344 51.736 157.239 51.7759V51.7582Z" fill="black"/>
<path d="M177.816 50.5087C177.417 49.9238 177.045 49.3079 176.646 48.7851C175.813 47.735 175.135 46.6228 174.271 45.6037C173.19 44.3099 172.264 42.83 171.276 41.4388C171.063 41.1641 170.66 40.7608 170.319 40.3311C169.796 39.7107 170.044 39.0328 170.939 39.0018C171.71 39.0018 173.598 39.0328 174.302 39.0328C175.189 39.0328 175.999 38.8777 176.708 39.374C177.293 39.7728 177.785 40.8849 178.219 41.4698C178.529 41.873 178.742 42.2097 179.083 42.675C179.73 43.539 180.346 44.4473 180.997 45.298C181.52 46.0069 182.327 46.2241 182.725 45.6968C183.124 45.1695 183.372 44.7707 183.403 44.7087C183.589 44.403 183.217 44.0928 182.907 43.7251C182.291 42.9231 180.873 41.3457 180.226 40.4817C179.699 39.7728 180.102 39.1259 180.997 39.1259H182.477C183.363 39.1259 184.635 39.0949 185.313 39.0949C185.724 39.0569 186.137 39.155 186.487 39.374C186.713 39.6331 186.9 39.9243 187.041 40.238C187.599 41.009 188.184 41.7489 188.738 42.4889C189.42 43.375 190.129 44.2612 190.776 45.205C191.082 45.648 191.361 46.2506 191.764 46.0911C192.167 45.9316 192.841 44.6068 193.151 44.208C193.922 43.1889 194.693 42.1388 195.433 41.1065C195.805 40.6102 196.39 39.3784 196.944 39.0993C197.371 38.9549 197.826 38.9124 198.273 38.9752C199.013 39.0373 199.23 39.6531 198.716 40.3931C196.589 43.4193 194.458 46.3791 192.238 49.3744C191.591 50.2605 190.945 51.191 190.262 52.055C189.819 52.6133 189.739 52.7994 189.186 52.1791C188.166 51.0093 187.302 49.6491 186.345 48.4173C186.252 48.2932 185.667 47.3982 185.357 46.9374C184.958 46.3791 184.493 46.6893 184.188 47.0881C183.882 47.4868 183.691 47.8014 183.66 47.8324C182.774 48.9091 181.888 50.0478 181.099 51.191C181.011 51.3151 180.763 51.7183 180.514 52.0772C180.178 52.5202 179.495 52.6665 179.252 52.2943C179.008 51.9221 178.343 51.222 177.816 50.5087Z" fill="black"/>
</g>
<defs>
<clipPath id="clip0_1313_25189">
<rect width="210" height="89.9999" fill="white"/>
</clipPath>
</defs>
</svg>
