<svg width="210" height="90" viewBox="0 0 210 90" fill="none" xmlns="http://www.w3.org/2000/svg">
<g clip-path="url(#clip0_1313_25753)">
<path fill-rule="evenodd" clip-rule="evenodd" d="M171.115 44.9383C171.115 41.0917 174.16 38 177.87 38C181.58 38 184.625 41.0917 184.625 44.9383C184.625 48.7849 181.614 51.8767 177.87 51.8767C174.125 51.8767 171.115 48.7491 171.115 44.9383ZM110.739 38.2158V51.4453H112.805V43.824L117.915 49.8636L123.025 43.824V51.4453H125.09V38.2158L117.88 46.7L110.739 38.2158ZM4.9 38.3233C7.13999 38.3233 8.64498 40.1568 8.64498 42.134C8.64498 43.9315 7.45499 45.4054 5.87999 45.8009C6.29999 46.4839 9.30999 51.445 9.30999 51.445H6.85999L3.56999 45.9087H2.065V51.445H0V38.3233H4.9ZM4.93513 43.9314C5.88013 43.9314 6.65013 43.1405 6.65013 42.1698C6.65013 41.1633 5.84513 40.4083 4.90014 40.4083H2.06514V43.9314H4.93513ZM33.9499 44.5786C34.4399 44.1112 35.0349 43.2125 35.0349 42.134C35.0349 40.0489 33.4248 38.3233 31.3249 38.3233H26.7749V51.445H31.9899C33.9149 51.445 35.6649 49.8633 35.6999 47.6343C35.6649 46.1604 34.7199 45.01 33.9499 44.5786ZM28.84 43.9314H31.325C32.165 43.9314 33.0051 43.1764 33.0051 42.1698C33.0051 41.1992 32.2 40.4083 31.325 40.4083H28.84V43.9314ZM33.6351 47.6338C33.6351 48.5686 32.865 49.3594 31.955 49.3594H28.84V45.9082H31.955C32.9 45.9082 33.6351 46.6991 33.6351 47.6338ZM133.804 38.3233H131.74V51.445H133.804V38.3233ZM16.0651 45.9087H20.4751V43.9315H16.0651V40.4084H21.035V38.3233H14V51.445H21.175V49.3599H16.0651V45.9087ZM47.5998 45.9087H43.2248V49.3599H48.2999V51.445H41.1249V38.3233H48.1948V40.4084H43.2248V43.9315H47.5998V45.9087ZM189.98 51.445H192.045V45.9087H196.454V43.9315H192.045V40.4084H197.05V38.3233H189.98V51.445ZM204.995 51.445H202.93V38.3233H210V40.4084H204.995V43.9315H209.37V45.9087H204.995V51.445ZM177.87 49.7195C175.28 49.7195 173.179 47.5985 173.179 44.9023C173.179 42.242 175.28 40.085 177.87 40.085C180.46 40.085 182.56 42.242 182.56 44.9023C182.56 47.5626 180.46 49.7195 177.87 49.7195ZM165.969 51.445L159.914 44.9021L165.83 38.3233H168.525L162.575 44.9021L168.804 51.445H165.969ZM159.914 43.8236V38.3233H157.815V51.445H159.914V45.9087V44.9021V43.8236ZM55.23 44.9024C55.23 47.5986 57.3299 49.7196 59.92 49.7196C61.285 49.7196 62.5449 49.1086 63.42 48.1738L64.8199 49.6118C64.1549 50.3308 62.51 51.8407 59.8149 51.8407C56.245 51.8407 53.1299 48.8209 53.1299 44.9024C53.1299 41.1277 56.1049 38 59.8149 38C61.9149 38 63.6649 38.9347 64.8549 40.3008L63.455 41.7388C62.5799 40.6963 61.3199 40.0851 59.92 40.0851C57.2949 40.0851 55.23 42.2781 55.23 44.9024ZM75.215 49.7196C72.625 49.7196 70.525 47.5986 70.525 44.9024C70.525 42.2781 72.59 40.0851 75.215 40.0851C76.6151 40.0851 77.8751 40.6963 78.75 41.7388L80.15 40.3008C78.96 38.9347 77.21 38 75.0751 38C71.365 38 68.39 41.1636 68.39 44.9383C68.39 48.8569 71.505 51.8767 75.0751 51.8767C77.77 51.8767 79.4501 50.3668 80.08 49.6118L78.68 48.1738C77.84 49.1086 76.58 49.7196 75.215 49.7196ZM140.42 38.1801L149.17 46.6642V38.252H151.234V51.5175L142.485 43.0692V51.4096H140.42V38.1801ZM83.3348 51.4453H85.5748L86.8348 48.3896H91.3848L92.6448 51.4453H94.8498L89.1099 38.2158L83.3348 51.4453ZM89.1099 42.8185L87.6748 46.3056H90.5449L89.1099 42.8185Z" fill="black"/>
</g>
<defs>
<clipPath id="clip0_1313_25753">
<rect width="210" height="89.9999" fill="white"/>
</clipPath>
</defs>
</svg>
