<svg width="64" height="64" viewBox="0 0 64 64" fill="none" xmlns="http://www.w3.org/2000/svg">
<rect width="64" height="64" rx="14" fill="#A5E3B9"/>
<path fill-rule="evenodd" clip-rule="evenodd" d="M31.6445 39.8222C31.6445 40.411 31.1673 40.8889 30.5778 40.8889H24.8889C24.2994 40.8889 23.8222 40.411 23.8222 39.8222C23.8222 39.2334 24.2994 38.7556 24.8889 38.7556H30.5778C31.1673 38.7556 31.6445 39.2334 31.6445 39.8222V39.8222ZM43.0222 43.7334H21.6889V25.9556H26.6667V33.4223C26.6667 33.8084 26.8757 34.1647 27.2128 34.3538C27.5506 34.5415 27.963 34.5337 28.2923 34.3303L32.3555 31.8308L36.4188 34.3303C36.5902 34.4363 36.7836 34.4889 36.9778 34.4889C37.157 34.4889 37.3362 34.4441 37.4983 34.3538C37.8354 34.1647 38.0444 33.8084 38.0444 33.4223V25.9556H43.0222V43.7334ZM24.1259 20.2667H27.4987L26.7876 23.8223H22.3481L24.1259 20.2667ZM28.7999 25.9556H35.9111V31.5129L32.9144 29.6697C32.7431 29.5638 32.5489 29.5111 32.3555 29.5111C32.1621 29.5111 31.9679 29.5638 31.7966 29.6697L28.7999 31.5129V25.9556ZM29.6739 20.2667H35.0371L35.7483 23.8223H28.9628L29.6739 20.2667ZM40.5852 20.2667L42.363 23.8223H37.9235L37.2124 20.2667H40.5852ZM45.1285 24.6564C45.1243 24.6358 45.115 24.6159 45.1093 24.5952C45.0944 24.5419 45.0766 24.4893 45.0524 24.4395C45.0489 24.4303 45.0475 24.4203 45.0432 24.4118L42.1987 18.7229C42.0174 18.3616 41.6483 18.1334 41.2444 18.1334H35.9111H28.8H23.4667C23.0627 18.1334 22.6937 18.3616 22.5123 18.7229L19.6679 24.4118C19.6636 24.4203 19.6622 24.4303 19.6587 24.4395C19.6345 24.4893 19.6167 24.5419 19.6018 24.5952C19.5961 24.6159 19.5868 24.6358 19.5826 24.6564C19.5662 24.7318 19.5555 24.8093 19.5555 24.8889V44.8C19.5555 45.3888 20.0327 45.8667 20.6222 45.8667H44.0889C44.6784 45.8667 45.1555 45.3888 45.1555 44.8V24.8889C45.1555 24.8093 45.1449 24.7318 45.1285 24.6564V24.6564Z" fill="black"/>
</svg>
