<svg width="64" height="64" viewBox="0 0 64 64" fill="none" xmlns="http://www.w3.org/2000/svg">
<rect width="64" height="64" rx="14" fill="#A5E3B9"/>
<path fill-rule="evenodd" clip-rule="evenodd" d="M41.4731 30.2581C41.4731 30.0563 41.3086 29.8925 41.1075 29.8925H23.5591C23.3581 29.8925 23.1935 30.0563 23.1935 30.2581V43.4194C23.1935 43.6212 23.3581 43.785 23.5591 43.785H41.1075C41.3086 43.785 41.4731 43.6212 41.4731 43.4194V30.2581ZM27.215 27.6989H37.4516V22.9462C37.4516 20.3257 35.3194 18.1935 32.6989 18.1935H31.9677C29.3471 18.1935 27.215 20.3257 27.215 22.9462V27.6989ZM43.6667 30.2581V43.4194C43.6667 44.8305 42.5187 45.9785 41.1075 45.9785H23.5591C22.148 45.9785 21 44.8305 21 43.4194V30.2581C21 28.8469 22.148 27.6989 23.5591 27.6989H25.0215V22.9462C25.0215 19.1163 28.1378 16 31.9677 16H32.6989C36.5289 16 39.6452 19.1163 39.6452 22.9462V27.6989H41.1075C42.5187 27.6989 43.6667 28.8469 43.6667 30.2581V30.2581ZM34.5722 39.898C34.7294 40.3711 34.377 40.8603 33.8776 40.8603H30.7891C30.2897 40.8603 29.9372 40.3711 30.0944 39.898L31.3799 36.9777C30.6479 36.6223 30.1398 35.8787 30.1398 35.0108C30.1398 33.7992 31.1218 32.8172 32.3333 32.8172C33.5449 32.8172 34.5269 33.7992 34.5269 35.0108C34.5269 35.8787 34.0187 36.6223 33.2868 36.9777L34.5722 39.898Z" fill="black"/>
</svg>
