<svg width="210" height="90" viewBox="0 0 210 90" fill="none" xmlns="http://www.w3.org/2000/svg">
<path d="M27.9986 31.5H29.6852C31.1657 31.6467 32.6794 32.1925 33.659 33.3317C34.6642 34.4833 35.0816 36.0133 35.1514 37.4992C35.1472 38.5833 35.1523 39.6675 35.1489 40.7517C33.8004 40.7475 32.452 40.7508 31.1035 40.75C31.0805 39.6117 31.1512 38.47 31.0635 37.335C31.026 36.5258 30.5882 35.6292 29.7321 35.4033C28.887 35.1608 27.7916 35.2492 27.2319 35.995C26.743 36.6092 26.7617 37.4292 26.7149 38.1667C26.7191 42.75 26.714 47.3333 26.7183 51.9167C26.7626 52.46 26.7481 53.0225 26.9696 53.5342C27.5394 55.1233 30.3173 55.1092 30.8693 53.5158C31.0481 53.06 31.0865 52.5667 31.1044 52.0833C31.1018 50.4867 31.1044 48.8892 31.1035 47.2925C30.4646 47.29 29.8258 47.2925 29.1869 47.2908C29.1835 46.03 29.1928 44.7683 29.1826 43.5067C31.1717 43.4908 33.1607 43.505 35.1497 43.4992V52.5858C35.0475 54.0592 34.6403 55.5875 33.6079 56.7083C32.5874 57.8675 31.0149 58.3775 29.4978 58.5H28.1664C26.8656 58.3908 25.5385 58.0283 24.5316 57.1808C23.2096 56.11 22.6584 54.4067 22.5 52.7875V37.21C22.6491 35.6008 23.1977 33.9267 24.4831 32.84C25.4584 32.0158 26.7328 31.6208 27.9986 31.5ZM78.2814 31.5H80.0294C81.5976 31.66 83.199 32.2925 84.1327 33.5908C85.2894 35.125 85.4232 37.1142 85.4113 38.9533C84.0475 38.965 82.6837 38.9558 81.3199 38.9583C81.3003 38.0225 81.4255 37.02 80.9689 36.1575C80.4604 35.2083 79.1222 35.11 78.2047 35.4783C77.686 35.7092 77.3785 36.23 77.2601 36.7567C76.9951 37.9125 77.1723 39.1533 77.7218 40.2067C78.2823 41.2292 79.0932 42.0942 79.9527 42.8833C81.6206 44.3875 83.4197 45.855 84.4691 47.8692C85.0433 48.9983 85.3559 50.2492 85.3848 51.51C85.4572 53.49 85.0203 55.68 83.4674 57.0775C82.4545 57.98 81.0942 58.3758 79.7559 58.5H78.3504C76.5573 58.3758 74.6952 57.605 73.7505 56.0375C72.5988 54.3142 72.6857 52.18 72.7155 50.2083C74.0623 50.205 75.4082 50.2133 76.7549 50.205C76.8205 51.36 76.5931 52.5783 77.0667 53.675C77.7618 55.1408 80.4187 55.0517 80.9238 53.475C81.4553 51.87 80.9494 50.0708 79.8939 48.7767C78.6349 47.1533 76.8887 45.9883 75.5147 44.4692C74.6305 43.5333 73.8877 42.4567 73.426 41.2608C72.874 39.795 72.7743 38.1958 72.9753 36.655C73.1593 35.2508 73.7088 33.8317 74.8059 32.8675C75.7557 32.025 77.0267 31.6292 78.2814 31.5ZM35.9487 31.8333C37.4258 31.8325 38.9029 31.835 40.38 31.8317C41.4328 35.6767 42.4397 39.5342 43.4755 43.3842C43.5156 43.4933 43.5147 43.6275 43.605 43.7133C44.6383 39.7492 45.7141 35.7942 46.7662 31.8342C48.1581 31.8317 49.5508 31.8333 50.9427 31.8333C49.1964 37.5633 47.4348 43.2883 45.6869 49.0175C45.6281 49.2308 45.525 49.4392 45.5404 49.6658C45.5489 52.5525 45.5327 55.4383 45.548 58.325C44.1246 58.3392 42.7004 58.3392 41.2769 58.3242C41.2846 55.4175 41.2914 52.51 41.2735 49.6042C39.5222 43.675 37.6975 37.7642 35.9487 31.8333ZM52.5211 31.8408C54.4948 31.8225 56.4677 31.8392 58.4414 31.8325C59.4866 38.025 60.49 44.2258 61.5463 50.4167L61.5761 50.4183C61.5812 50.1042 61.6417 49.7958 61.6903 49.4858C62.6145 43.6025 63.5268 37.7175 64.4562 31.835C66.4282 31.8308 68.4002 31.8342 70.373 31.8333V58.25H66.2842V40.25C66.2748 40.0783 66.2936 39.8983 66.2297 39.7342C66.2143 40.0383 66.1786 40.3408 66.1258 40.64C65.2032 46.5092 64.3165 52.3858 63.3846 58.2517C62.025 58.2475 60.6664 58.2517 59.3068 58.25C58.4499 52.9033 57.524 47.5667 56.6466 42.2233C56.5273 41.4208 56.3339 40.6275 56.282 39.8167C56.2121 40.1508 56.2351 40.4942 56.2326 40.8325V58.25C54.9957 58.2442 53.758 58.2625 52.5211 58.2408C52.5314 49.4408 52.5305 40.6408 52.5211 31.8408ZM87.8356 31.8333H92.0947C92.0947 35.5967 92.0956 39.36 92.0939 43.1233C93.6979 43.1267 95.3027 43.1242 96.9067 43.125C96.9042 39.3633 96.9144 35.6025 96.9016 31.8417C98.3531 31.8292 99.8064 31.8258 101.258 31.8425C101.249 40.6425 101.248 49.4417 101.258 58.2417C99.8064 58.2558 98.3531 58.255 96.9016 58.2417C96.9153 54.4808 96.9042 50.72 96.9076 46.9583C95.3027 46.9592 93.6979 46.9567 92.0939 46.96C92.0956 50.7233 92.0939 54.4867 92.0947 58.25H87.8356V31.8333ZM107.44 31.8333C109.535 31.8342 111.63 31.8333 113.724 31.8333C113.732 31.995 113.753 32.1567 113.784 32.3158C115.209 40.96 116.598 49.61 118.035 58.2525C116.574 58.2475 115.114 58.2508 113.653 58.25C113.452 56.6658 113.153 55.0933 112.95 53.51C111.209 53.4917 109.467 53.4975 107.726 53.5067C107.533 55.0925 107.244 56.6683 107.018 58.25C105.721 58.25 104.422 58.2492 103.125 58.2508C104.552 49.4433 105.993 40.6375 107.44 31.8333ZM110.427 36.6633C110.459 36.8567 110.437 37.0508 110.389 37.2408C109.734 41.4525 109.049 45.6625 108.406 49.875C109.757 49.8742 111.108 49.8758 112.46 49.8742C111.839 45.57 111.159 41.2725 110.528 36.9692C110.506 36.8633 110.464 36.7642 110.427 36.6633ZM119.986 31.8417C122.217 31.8208 124.448 31.8408 126.679 31.8317C127.963 31.8717 129.295 32.0467 130.42 32.6983C131.237 33.1625 131.858 33.9117 132.218 34.7617C132.911 36.335 132.755 38.0817 132.77 39.7508C132.795 41.045 132.648 42.3933 132.001 43.5467C131.577 44.3333 130.897 45.01 130.063 45.375C130.811 45.7308 131.489 46.255 131.93 46.9533C132.604 47.9783 132.786 49.2225 132.857 50.415C132.852 52.1933 132.858 53.9717 132.853 55.75C132.881 56.6267 132.954 57.5258 133.336 58.3342C131.83 58.3325 130.324 58.3333 128.819 58.3342C128.511 57.6217 128.443 56.8467 128.424 56.0833C128.425 54.2208 128.427 52.3583 128.423 50.4967C128.356 49.5867 128.207 48.5042 127.357 47.9617C126.427 47.3825 125.288 47.64 124.252 47.5825C124.254 51.1633 124.245 54.7442 124.257 58.325C122.834 58.3392 121.41 58.3375 119.987 58.3258C119.996 49.4983 119.997 40.67 119.986 31.8417ZM124.251 35.6258C124.252 38.3058 124.25 40.9867 124.253 43.6675C125.321 43.6033 126.509 43.88 127.462 43.27C128.174 42.7808 128.401 41.89 128.426 41.0842C128.422 40.055 128.429 39.0258 128.424 37.9975C128.367 37.3708 128.283 36.6942 127.844 36.2017C127.522 35.8725 127.057 35.6917 126.597 35.6683C125.818 35.5883 125.033 35.6392 124.251 35.6258ZM135.49 31.8425C136.911 31.8208 138.332 31.84 139.754 31.8325C139.755 35.6183 139.756 39.4042 139.754 43.1892C141.596 39.4058 143.44 35.625 145.281 31.8417C146.71 31.8225 148.14 31.8383 149.57 31.8333C147.615 35.7233 145.678 39.6225 143.73 43.5158C143.634 43.6658 143.789 43.8167 143.827 43.96C145.737 48.7233 147.656 53.4842 149.559 58.25C148.071 58.2492 146.583 58.25 145.095 58.25C143.749 54.7625 142.366 51.2883 140.999 47.8083C140.568 48.5683 140.179 49.3525 139.762 50.1192C139.75 52.8258 139.752 55.5342 139.761 58.2417C138.337 58.2542 136.913 58.2575 135.49 58.2408C135.499 49.4417 135.499 40.6417 135.49 31.8425ZM152.233 31.9275C163.989 31.9017 175.745 31.9242 187.5 31.9167V31.9608C179.592 40.5408 171.702 49.1392 163.735 57.6667C163.54 57.8825 163.342 58.0958 163.116 58.28C163.423 57.6358 163.731 56.9883 164.122 56.3883C163.534 55.7992 163.452 54.9042 162.979 54.2417C162.331 54.5108 161.703 54.9483 160.988 54.9667C160.407 54.4867 160.367 53.6733 159.982 53.0633C159.343 53.225 158.838 53.7517 158.177 53.8283C156.258 53.0542 154.348 52.2575 152.433 51.4758C153.821 51.4483 155.206 51.3883 156.594 51.46C157.2 51.9733 157.804 52.4917 158.432 52.98C158.84 52.4917 159.17 51.9475 159.574 51.4567C159.917 51.4583 160.26 51.4592 160.604 51.4567C161.043 51.8733 161.331 52.4117 161.704 52.8817C162.159 52.4333 162.616 51.9875 163.073 51.5408C163.314 51.5417 163.556 51.5408 163.799 51.5408C164.311 51.9433 164.632 52.5792 165.208 52.8842C165.519 52.4942 165.87 52.1375 166.18 51.7475C166.484 51.6867 166.956 51.915 167.126 51.5717C170.554 46.4933 174.015 41.4367 177.433 36.3517C169.243 34.8875 161.044 33.4692 152.841 32.0708C152.636 32.0333 152.416 32.0333 152.233 31.9275Z" fill="black"/>
<path d="M156.732 37.8259C159.975 38.6143 163.231 39.3559 166.496 40.0593C166.693 40.0926 166.894 40.1301 167.069 40.2359C165.547 40.4526 164.043 40.7801 162.527 41.0243C160.67 40.0343 158.829 39.0134 156.975 38.0168C156.891 37.9584 156.757 37.9376 156.732 37.8259Z" fill="black"/>
</svg>
