<svg width="210" height="90" viewBox="0 0 210 90" fill="none" xmlns="http://www.w3.org/2000/svg">
<g clip-path="url(#clip0_1313_25727)">
<path d="M61.5657 55.2615H71.0257V57.5533H57V33.5431L59.2714 32.4456L60.1907 32H61.5657V55.2615ZM90.3581 50.5227L91.7739 51.0981C90.9082 54.08 88.2828 56.4023 85.3901 57.4336C82.0415 58.6458 78.0793 57.7163 75.5049 55.3965C73.7171 53.8262 72.6812 51.5701 72.6554 49.1908C72.607 45.1981 74.6671 41.3988 78.395 39.871C80.5824 38.9186 83.6941 38.8524 85.9452 39.7386C88.9856 40.8564 91.3104 43.6677 91.2239 46.9347H76.7093C76.6787 50.8766 79.1538 54.9789 83.3962 54.9433C86.1717 54.9433 89.3268 53.3517 90.297 50.6907C90.297 50.6907 89.8489 51.8621 90.3581 50.5227ZM81.1909 40.7571C78.833 40.7571 76.9639 42.891 76.745 45.1676L86.047 45.1828C86.0089 42.6364 83.6711 40.7088 81.1909 40.7571ZM129.67 48.8802C127.439 47.113 124.292 46.5426 121.873 45.1446C118.593 43.1839 120.52 40.5407 123.749 40.6196C126.041 40.6196 127.788 41.9667 129.076 43.9657L130.772 42.5829C128.784 40.174 126.887 39.0409 123.788 39.1121C120.66 39.0383 116.999 40.7928 116.983 44.2228C117.045 48.9133 122.698 49.5702 125.817 51.5616C127.386 52.4987 128.063 54.4009 126.415 55.6358C124.908 56.7308 122.631 56.6035 121.068 55.6511C119.991 54.9916 119.176 54.0545 118.336 52.9748L116.502 54.5027C117.969 56.326 119.909 57.5406 122.143 57.8538C125.427 58.2587 129.484 57.7418 131.032 54.6198C131.982 52.5394 131.511 50.2909 129.672 48.8903M153 57.5839L148.307 57.5686C147.383 57.1408 146.524 56.326 146.42 55.2768C145.078 56.2649 143.818 57.2757 142.129 57.6933C139.619 58.3783 136.247 57.8666 135.147 55.1826C134.274 53.1786 135.002 50.8537 136.695 49.5219C139.382 47.3651 143.1 46.5834 146.405 45.7863C146.405 44.3221 146.489 42.6058 145.659 41.4981C144.839 40.4541 143.028 40.4261 141.857 40.8946C140.477 41.465 139.596 42.8249 139.42 44.2839H135.557C135.998 40.5076 140.377 39.0994 143.731 39.107C146.362 39.1402 149.244 39.5094 150.265 41.9845C150.5 42.6244 150.617 43.3018 150.609 43.9835V54.984C150.589 56.0356 151.419 56.853 152.323 57.2757L153 57.5839ZM146.405 47.2785C144.054 48.0195 140.652 49.1884 139.275 51.3197C138.412 52.761 139.412 54.63 140.836 55.2564C142.855 56.0433 144.778 54.7166 146.392 53.6217V47.2785M112.41 50.5227L113.831 51.0981C112.968 54.08 110.342 56.4023 107.45 57.4336C104.101 58.6458 100.139 57.7163 97.5645 55.3965C95.7755 53.8251 94.7393 51.5668 94.715 49.1858C94.6667 45.193 96.7267 41.3937 100.455 39.8659C102.642 38.9135 105.754 38.8473 108.005 39.7335C111.043 40.8513 113.368 43.6626 113.281 46.9297H98.7613C98.7307 50.8715 101.196 54.9738 105.446 54.9381C108.224 54.9381 111.379 53.3467 112.349 50.6857C112.357 50.6907 111.901 51.8621 112.41 50.5227ZM103.243 40.7571C100.882 40.7571 99.0133 42.891 98.7969 45.1676L108.099 45.1828C108.061 42.6364 105.721 40.7088 103.243 40.7571ZM150.708 36.5836C151.974 36.5836 153 35.5575 153 34.2918C153 33.0261 151.974 32 150.708 32C149.442 32 148.416 33.0261 148.416 34.2918C148.416 35.5575 149.442 36.5836 150.708 36.5836ZM150.708 32.4253C151.739 32.4253 152.575 33.2609 152.575 34.2918C152.575 35.3226 151.739 36.1583 150.708 36.1583C149.677 36.1583 148.842 35.3226 148.842 34.2918C148.843 33.2615 149.678 32.4267 150.708 32.4253ZM151.184 35.43L150.634 34.5872L150.252 34.5744V35.43H149.774V33.1535C150.005 33.1535 150.948 33.1128 151.151 33.1994C151.442 33.2932 151.637 33.5648 151.634 33.8699C151.631 34.175 151.431 34.4429 151.139 34.5311L151.727 35.43H151.184ZM150.252 34.1568H150.838C150.919 34.1642 150.999 34.1363 151.058 34.0802C151.118 34.0241 151.149 33.9453 151.146 33.864C151.151 33.7798 151.119 33.6977 151.057 33.64C150.996 33.5824 150.912 33.5552 150.828 33.566H150.252V34.1568Z" fill="black"/>
</g>
<defs>
<clipPath id="clip0_1313_25727">
<rect width="210" height="89.9999" fill="white"/>
</clipPath>
</defs>
</svg>
