<svg width="210" height="90" viewBox="0 0 210 90" fill="none" xmlns="http://www.w3.org/2000/svg">
<g clip-path="url(#clip0_1314_23585)">
<g clip-path="url(#clip1_1314_23585)">
<path d="M76.3874 26H82.599L75.0309 38.7898L82.599 54.5138H76.2089L69.7475 39.9183H69.6761V54.5138H64V26H69.6761V38.188H69.7475L76.3874 26Z" fill="black"/>
<path d="M89.5257 44.6581L82.4573 26H88.6331L92.667 38.0375L96.9866 26H102.77L95.2016 44.6581V54.5138H89.5257V44.6581Z" fill="black"/>
<path d="M105.66 54.5138V26H111.336V49.7741H119.797V54.5138H105.66Z" fill="black"/>
<path d="M128.221 26H122.545V54.5138H128.221V26Z" fill="black"/>
<path d="M130.936 54.5138V26H145.715V30.4012H136.577V37.4356H145.002V41.7992H136.577V50.1502H146.001V54.5138H130.936Z" fill="black"/>
<path d="M106.302 58.0501V62.677C106.302 63.5422 105.66 64.1065 104.553 64.1065C103.447 64.1065 102.947 63.6174 102.947 62.5265V62.0376H104.161V62.5265C104.161 62.978 104.268 63.2413 104.625 63.2413C104.982 63.2413 105.124 63.0532 105.124 62.4889V58.0501H106.302Z" fill="black"/>
<path d="M83.8484 58.0501V60.5704L85.2407 58.0501H86.5258L84.9551 60.721L86.5258 63.9937H85.205L83.8484 60.9843V63.9937H82.6704V58.0501H83.8484Z" fill="black"/>
<path d="M87.8822 58.0501L88.7391 60.5704L89.6315 58.0501H90.8452L89.2745 61.8119V63.9937H88.0608V61.8119L86.5972 58.0501H87.8822Z" fill="black"/>
<path d="M92.4872 58.0501V63.0156H94.2364V63.9937H91.2734V58.0501H92.4872Z" fill="black"/>
<path d="M95.9869 58.0501V63.9937H94.8088V58.0501H95.9869Z" fill="black"/>
<path d="M99.5908 58.0501V58.9528H97.6988V60.42H99.448V61.3604H97.6988V63.0908H99.6623V64.0313H96.5208V58.0501H99.5908Z" fill="black"/>
<path d="M109.945 58.0501V58.9528H108.053V60.42H109.802V61.3604H108.053V63.0908H110.016V64.0313H106.839V58.0501H109.945Z" fill="black"/>
<path d="M112.122 58.0501L113.621 62.188V58.0501H114.728V63.9937H113.193L111.658 59.63V63.9937H110.551V58.0501H112.122Z" fill="black"/>
<path d="M116.869 58.0501L118.369 62.188V58.0501H119.475V63.9937H117.94L116.405 59.63V63.9937H115.298V58.0501H116.869Z" fill="black"/>
<path d="M123.117 58.0501V58.9528H121.225V60.42H122.974V61.3604H121.225V63.0908H123.189V64.0313H120.047V58.0501H123.117Z" fill="black"/>
<path d="M125.688 58.0501C126.723 58.0501 127.223 58.5391 127.223 59.63C127.223 60.4952 126.902 60.9467 126.188 61.0971C126.866 61.21 127.152 61.4356 127.187 62.2632L127.259 63.2789C127.294 63.7303 127.294 63.8807 127.33 64.0313H126.188C126.081 63.8055 126.045 63.6928 126.045 63.3917V62.4889C126.045 61.7743 125.795 61.5861 125.117 61.5861H124.903V64.0689H123.725V58.0501H125.688ZM124.903 60.6458H125.188C125.724 60.6458 126.045 60.5328 126.045 59.7804C126.045 59.0658 125.759 58.9528 125.188 58.9528H124.938V60.6458H124.903Z" fill="black"/>
</g>
</g>
<defs>
<clipPath id="clip0_1314_23585">
<rect width="210" height="89.9999" fill="white"/>
</clipPath>
<clipPath id="clip1_1314_23585">
<rect width="82" height="39" fill="white" transform="translate(64 26)"/>
</clipPath>
</defs>
</svg>
