<svg width="210" height="90" viewBox="0 0 210 90" fill="none" xmlns="http://www.w3.org/2000/svg">
<path fill-rule="evenodd" clip-rule="evenodd" d="M109.534 56.8028L107.802 54.7112C106.375 56.1056 103.217 57.5 100.874 57.5C96.9007 57.5 93.5387 54.7112 93.5387 51.0259C93.5387 46.5438 97.9195 44.0538 99.2439 43.6554C98.327 42.5598 96.7988 40.7669 96.7988 38.4761C96.9007 35.488 98.7345 33.0976 102.81 33.0976C106.273 33.0976 108.922 35.3884 108.922 38.6753C108.922 42.4602 105.968 43.755 105.051 44.4522L107.904 48.4363C108.719 47.4402 109.432 45.1494 109.33 44.6514H113.303C113.303 44.6514 112.794 49.3327 110.552 51.6235L114.627 56.8028H109.534ZM103.013 36.6833C101.791 36.6833 100.874 37.6793 100.976 38.5757C101.078 39.8705 102.198 40.6673 102.81 41.5637C103.625 40.9661 105.153 40.0697 105.153 38.6753C105.153 37.6793 104.338 36.6833 103.013 36.6833ZM101.587 46.6434C97.8176 49.1335 98.1232 50.8267 98.1232 50.8267C98.1232 52.5199 99.7533 53.5159 100.976 53.6155C102.402 53.6155 104.44 52.4203 105.458 51.6235L101.587 46.6434ZM35.9775 43.257C35.0606 39.8705 31.9024 37.0817 28.2348 37.0817C23.5484 37.0817 19.9826 40.7669 20.0845 45.1494C20.1864 49.4323 23.5484 52.7191 28.2348 52.7191C32.6155 52.7191 35.1625 49.6315 35.6719 47.5398H40.2564C39.2376 53.9143 33.023 57.2012 28.1329 57.2012C22.5296 57.2012 15.5 52.6195 15.5 45.0498C15.5 37.8785 21.1033 32.5 28.2348 32.5C34.2456 32.5 39.747 36.9821 40.562 43.257H35.9775ZM73.2649 56.9024C69.6992 56.9024 68.986 54.3127 68.986 52.9183V42.5598H66.6429V39.2729H68.986V34.0936H73.5706V39.4721H76.525V42.5598H73.5706V51.9223C73.5706 54.3127 76.525 53.5159 76.9325 53.6155V56.9024H73.2649ZM45.8597 49.0339V56.9024H41.3771V39.7709H45.7578V41.4641C46.3691 40.5677 47.6935 39.6713 49.1198 39.1733C50.1386 39.0737 51.0555 39.1733 51.0555 39.1733V43.4562C48.8142 42.759 45.6559 43.755 45.8597 49.0339Z" fill="black"/>
<path fill-rule="evenodd" clip-rule="evenodd" d="M80.3964 49.3326C80.3964 51.6235 82.5359 53.3167 84.8791 53.3167C86.5091 53.3167 87.5279 52.7191 88.3429 51.4243H93.0293C92.4181 54.4123 89.158 57.2012 84.981 57.2012C79.5814 57.2012 75.8119 53.2171 75.8119 47.6394C75.8119 43.3566 79.072 38.9741 84.4716 39.0737C90.5843 39.1733 93.335 44.3526 93.2331 49.3326H80.3964ZM84.4716 42.5597C82.5359 42.4601 80.6002 43.9542 80.6002 46.0458H88.2411C88.3429 43.9542 86.5091 42.5597 84.4716 42.5597ZM62.7715 56.8028C62.7715 56.9024 62.6696 56.2052 62.4659 55.4083C61.6509 56.006 59.9189 57.3008 57.1682 57.3008C54.1119 57.3008 50.5461 55.5079 50.5461 51.9223C50.5461 49.8307 51.9724 46.9422 56.8626 46.3446C59.7152 45.9462 61.8546 46.1454 62.0584 44.6514C62.1603 44.1534 61.6509 42.2609 58.7983 42.2609C57.4739 42.2609 55.8438 42.6593 55.5382 44.751H51.5649C51.5649 41.7629 53.3987 39.1733 59.2058 39.1733C62.8734 39.1733 66.4391 40.6673 66.4391 44.5518V54.0139C66.541 55.0099 66.8466 56.3048 67.2542 56.8028H62.7715ZM54.6213 51.9223C54.7231 53.7151 57.1682 54.0139 57.5757 53.8147C57.5757 53.8147 60.0208 53.8147 61.0396 52.6195C61.6509 51.7231 62.0584 50.7271 61.6509 48.3366C57.372 49.3326 54.6213 49.7311 54.6213 51.9223ZM190.119 33.8944H194.5V56.8028H190.119V33.8944ZM166.993 49.1334V56.9024H162.51V39.9701H166.891V41.6633C167.706 40.7669 168.827 39.7709 170.253 39.3725C171.374 39.1733 172.291 39.3725 172.291 39.3725V43.5558C169.845 42.8585 166.789 43.8546 166.993 49.1334ZM156.194 49.1334V56.9024H151.609V39.9701H156.092V41.6633C156.907 40.7669 158.028 39.7709 159.454 39.3725C160.473 39.1733 161.39 39.3725 161.39 39.3725V43.5558C159.148 42.8585 155.99 43.8546 156.194 49.1334ZM176.468 49.4322C176.468 51.5239 178.607 53.3167 180.95 53.3167C182.478 53.3167 183.599 52.8187 184.414 51.4243H188.999C188.489 54.4123 185.229 57.2012 181.052 57.2012C175.754 57.2012 171.883 53.2171 171.883 47.739C171.883 43.4562 175.143 39.0737 180.543 39.1733C186.554 39.1733 189.406 44.4522 189.202 49.4322H176.468ZM180.645 42.5597C178.607 42.5597 176.671 43.9542 176.671 46.0458H184.312C184.312 44.0538 182.682 42.5597 180.645 42.5597ZM127.159 56.8028H114.933V33.7948H125.528C129.094 33.7948 132.864 35.3884 132.864 39.6713C132.864 43.1573 130.011 43.9542 129.4 44.4522C131.437 45.0498 133.781 47.0418 133.781 50.8267C133.679 54.9103 129.604 56.8028 127.159 56.8028ZM124.51 37.3805H119.212V43.0577H124.306C125.427 43.0577 128.075 42.6593 128.075 39.9701C127.974 38.1773 126.14 37.4801 124.51 37.3805ZM124.51 46.5438H119.212V53.3167H124.815C125.63 53.3167 128.585 52.7191 128.585 50.2291C128.585 48.8346 128.177 46.5438 124.51 46.5438ZM146.515 56.8028C146.515 56.9024 146.312 56.2052 146.21 55.4083C145.395 56.006 143.663 57.3008 140.912 57.3008C137.856 57.3008 134.29 55.5079 134.29 51.9223C134.29 49.8307 135.716 47.1414 140.81 46.3446C143.459 45.9462 145.7 46.1454 145.904 44.6514C146.006 44.253 145.497 42.3605 142.644 42.3605C141.32 42.3605 139.791 42.6593 139.486 44.8506H135.411C135.411 41.8625 137.448 39.2729 143.052 39.2729C146.515 39.2729 150.183 40.7669 150.285 44.6514V53.4163C150.285 54.2131 150.591 56.1056 150.896 56.7032L146.515 56.8028ZM138.976 51.9223C138.976 53.7151 141.523 54.0139 141.931 53.8147C141.931 53.8147 144.376 53.8147 145.293 52.6195C145.904 51.7231 146.21 50.8267 145.904 48.3366C141.727 49.4322 138.976 49.7311 138.976 51.9223Z" fill="black"/>
</svg>
